<svg width="800" height="800" style="background-color: rgb(255, 255, 255)" xmlns="http://www.w3.org/2000/svg">
<circle id="" cx="175" cy="80" r="20" fill="rgb(255, 224, 189)" fill-opacity="1" stroke="rgb(255, 255, 255)" stroke-width="0" />
<line id="" x1="175" y1="100" x2="175" y2="160" stroke="rgb(0, 100, 200)" stroke-width="5" />
<line id="" x1="175" y1="110" x2="135" y2="110" stroke="rgb(0, 100, 200)" stroke-width="5" />
<line id="" x1="175" y1="110" x2="215" y2="110" stroke="rgb(0, 100, 200)" stroke-width="5" />
<line id="" x1="175" y1="160" x2="150" y2="210" stroke="rgb(50, 50, 50)" stroke-width="5" />
<line id="" x1="175" y1="160" x2="200" y2="210" stroke="rgb(50, 50, 50)" stroke-width="5" />
<circle id="" cx="325" cy="80" r="20" fill="rgb(255, 224, 189)" fill-opacity="1" stroke="rgb(255, 255, 255)" stroke-width="0" />
<line id="" x1="325" y1="100" x2="325" y2="160" stroke="rgb(0, 100, 200)" stroke-width="5" />
<line id="" x1="325" y1="110" x2="285" y2="110" stroke="rgb(0, 100, 200)" stroke-width="5" />
<line id="" x1="325" y1="110" x2="365" y2="110" stroke="rgb(0, 100, 200)" stroke-width="5" />
<line id="" x1="325" y1="160" x2="300" y2="210" stroke="rgb(50, 50, 50)" stroke-width="5" />
<line id="" x1="325" y1="160" x2="350" y2="210" stroke="rgb(50, 50, 50)" stroke-width="5" />
<circle id="" cx="475" cy="80" r="20" fill="rgb(255, 224, 189)" fill-opacity="1" stroke="rgb(255, 255, 255)" stroke-width="0" />
<line id="" x1="475" y1="100" x2="475" y2="160" stroke="rgb(0, 100, 200)" stroke-width="5" />
<line id="" x1="475" y1="110" x2="435" y2="110" stroke="rgb(0, 100, 200)" stroke-width="5" />
<line id="" x1="475" y1="110" x2="515" y2="110" stroke="rgb(0, 100, 200)" stroke-width="5" />
<line id="" x1="475" y1="160" x2="450" y2="210" stroke="rgb(50, 50, 50)" stroke-width="5" />
<line id="" x1="475" y1="160" x2="500" y2="210" stroke="rgb(50, 50, 50)" stroke-width="5" />
<circle id="" cx="625" cy="80" r="20" fill="rgb(255, 224, 189)" fill-opacity="1" stroke="rgb(255, 255, 255)" stroke-width="0" />
<line id="" x1="625" y1="100" x2="625" y2="160" stroke="rgb(0, 100, 200)" stroke-width="5" />
<line id="" x1="625" y1="110" x2="585" y2="110" stroke="rgb(0, 100, 200)" stroke-width="5" />
<line id="" x1="625" y1="110" x2="665" y2="110" stroke="rgb(0, 100, 200)" stroke-width="5" />
<line id="" x1="625" y1="160" x2="600" y2="210" stroke="rgb(50, 50, 50)" stroke-width="5" />
<line id="" x1="625" y1="160" x2="650" y2="210" stroke="rgb(50, 50, 50)" stroke-width="5" />
<circle id="" cx="100" cy="170" r="20" fill="rgb(255, 224, 189)" fill-opacity="1" stroke="rgb(255, 255, 255)" stroke-width="0" />
<line id="" x1="100" y1="190" x2="100" y2="250" stroke="rgb(0, 100, 200)" stroke-width="5" />
<line id="" x1="100" y1="200" x2="60" y2="200" stroke="rgb(0, 100, 200)" stroke-width="5" />
<line id="" x1="100" y1="200" x2="140" y2="200" stroke="rgb(0, 100, 200)" stroke-width="5" />
<line id="" x1="100" y1="250" x2="75" y2="300" stroke="rgb(50, 50, 50)" stroke-width="5" />
<line id="" x1="100" y1="250" x2="125" y2="300" stroke="rgb(50, 50, 50)" stroke-width="5" />
<circle id="" cx="250" cy="170" r="20" fill="rgb(255, 224, 189)" fill-opacity="1" stroke="rgb(255, 255, 255)" stroke-width="0" />
<line id="" x1="250" y1="190" x2="250" y2="250" stroke="rgb(0, 100, 200)" stroke-width="5" />
<line id="" x1="250" y1="200" x2="210" y2="200" stroke="rgb(0, 100, 200)" stroke-width="5" />
<line id="" x1="250" y1="200" x2="290" y2="200" stroke="rgb(0, 100, 200)" stroke-width="5" />
<line id="" x1="250" y1="250" x2="225" y2="300" stroke="rgb(50, 50, 50)" stroke-width="5" />
<line id="" x1="250" y1="250" x2="275" y2="300" stroke="rgb(50, 50, 50)" stroke-width="5" />
<circle id="" cx="400" cy="170" r="20" fill="rgb(255, 224, 189)" fill-opacity="1" stroke="rgb(255, 255, 255)" stroke-width="0" />
<line id="" x1="400" y1="190" x2="400" y2="250" stroke="rgb(0, 100, 200)" stroke-width="5" />
<line id="" x1="400" y1="200" x2="360" y2="200" stroke="rgb(0, 100, 200)" stroke-width="5" />
<line id="" x1="400" y1="200" x2="440" y2="200" stroke="rgb(0, 100, 200)" stroke-width="5" />
<line id="" x1="400" y1="250" x2="375" y2="300" stroke="rgb(50, 50, 50)" stroke-width="5" />
<line id="" x1="400" y1="250" x2="425" y2="300" stroke="rgb(50, 50, 50)" stroke-width="5" />
<circle id="" cx="550" cy="170" r="20" fill="rgb(255, 224, 189)" fill-opacity="1" stroke="rgb(255, 255, 255)" stroke-width="0" />
<line id="" x1="550" y1="190" x2="550" y2="250" stroke="rgb(0, 100, 200)" stroke-width="5" />
<line id="" x1="550" y1="200" x2="510" y2="200" stroke="rgb(0, 100, 200)" stroke-width="5" />
<line id="" x1="550" y1="200" x2="590" y2="200" stroke="rgb(0, 100, 200)" stroke-width="5" />
<line id="" x1="550" y1="250" x2="525" y2="300" stroke="rgb(50, 50, 50)" stroke-width="5" />
<line id="" x1="550" y1="250" x2="575" y2="300" stroke="rgb(50, 50, 50)" stroke-width="5" />
<circle id="" cx="700" cy="170" r="20" fill="rgb(255, 224, 189)" fill-opacity="1" stroke="rgb(255, 255, 255)" stroke-width="0" />
<line id="" x1="700" y1="190" x2="700" y2="250" stroke="rgb(0, 100, 200)" stroke-width="5" />
<line id="" x1="700" y1="200" x2="660" y2="200" stroke="rgb(0, 100, 200)" stroke-width="5" />
<line id="" x1="700" y1="200" x2="740" y2="200" stroke="rgb(0, 100, 200)" stroke-width="5" />
<line id="" x1="700" y1="250" x2="675" y2="300" stroke="rgb(50, 50, 50)" stroke-width="5" />
<line id="" x1="700" y1="250" x2="725" y2="300" stroke="rgb(50, 50, 50)" stroke-width="5" />
<circle id="" cx="175" cy="240" r="20" fill="rgb(255, 224, 189)" fill-opacity="1" stroke="rgb(255, 255, 255)" stroke-width="0" />
<line id="" x1="175" y1="260" x2="175" y2="320" stroke="rgb(0, 100, 200)" stroke-width="5" />
<line id="" x1="175" y1="270" x2="135" y2="270" stroke="rgb(0, 100, 200)" stroke-width="5" />
<line id="" x1="175" y1="270" x2="215" y2="270" stroke="rgb(0, 100, 200)" stroke-width="5" />
<line id="" x1="175" y1="320" x2="150" y2="370" stroke="rgb(50, 50, 50)" stroke-width="5" />
<line id="" x1="175" y1="320" x2="200" y2="370" stroke="rgb(50, 50, 50)" stroke-width="5" />
<circle id="" cx="325" cy="240" r="20" fill="rgb(255, 224, 189)" fill-opacity="1" stroke="rgb(255, 255, 255)" stroke-width="0" />
<line id="" x1="325" y1="260" x2="325" y2="320" stroke="rgb(0, 100, 200)" stroke-width="5" />
<line id="" x1="325" y1="270" x2="285" y2="270" stroke="rgb(0, 100, 200)" stroke-width="5" />
<line id="" x1="325" y1="270" x2="365" y2="270" stroke="rgb(0, 100, 200)" stroke-width="5" />
<line id="" x1="325" y1="320" x2="300" y2="370" stroke="rgb(50, 50, 50)" stroke-width="5" />
<line id="" x1="325" y1="320" x2="350" y2="370" stroke="rgb(50, 50, 50)" stroke-width="5" />
<circle id="" cx="475" cy="240" r="20" fill="rgb(255, 224, 189)" fill-opacity="1" stroke="rgb(255, 255, 255)" stroke-width="0" />
<line id="" x1="475" y1="260" x2="475" y2="320" stroke="rgb(0, 100, 200)" stroke-width="5" />
<line id="" x1="475" y1="270" x2="435" y2="270" stroke="rgb(0, 100, 200)" stroke-width="5" />
<line id="" x1="475" y1="270" x2="515" y2="270" stroke="rgb(0, 100, 200)" stroke-width="5" />
<line id="" x1="475" y1="320" x2="450" y2="370" stroke="rgb(50, 50, 50)" stroke-width="5" />
<line id="" x1="475" y1="320" x2="500" y2="370" stroke="rgb(50, 50, 50)" stroke-width="5" />
<circle id="" cx="625" cy="240" r="20" fill="rgb(255, 224, 189)" fill-opacity="1" stroke="rgb(255, 255, 255)" stroke-width="0" />
<line id="" x1="625" y1="260" x2="625" y2="320" stroke="rgb(0, 100, 200)" stroke-width="5" />
<line id="" x1="625" y1="270" x2="585" y2="270" stroke="rgb(0, 100, 200)" stroke-width="5" />
<line id="" x1="625" y1="270" x2="665" y2="270" stroke="rgb(0, 100, 200)" stroke-width="5" />
<line id="" x1="625" y1="320" x2="600" y2="370" stroke="rgb(50, 50, 50)" stroke-width="5" />
<line id="" x1="625" y1="320" x2="650" y2="370" stroke="rgb(50, 50, 50)" stroke-width="5" />
<circle id="" cx="100" cy="350" r="20" fill="rgb(255, 224, 189)" fill-opacity="1" stroke="rgb(255, 255, 255)" stroke-width="0" />
<line id="" x1="100" y1="370" x2="100" y2="430" stroke="rgb(0, 100, 200)" stroke-width="5" />
<line id="" x1="100" y1="380" x2="60" y2="380" stroke="rgb(0, 100, 200)" stroke-width="5" />
<line id="" x1="100" y1="380" x2="140" y2="380" stroke="rgb(0, 100, 200)" stroke-width="5" />
<line id="" x1="100" y1="430" x2="75" y2="480" stroke="rgb(50, 50, 50)" stroke-width="5" />
<line id="" x1="100" y1="430" x2="125" y2="480" stroke="rgb(50, 50, 50)" stroke-width="5" />
<circle id="" cx="250" cy="350" r="20" fill="rgb(255, 224, 189)" fill-opacity="1" stroke="rgb(255, 255, 255)" stroke-width="0" />
<line id="" x1="250" y1="370" x2="250" y2="430" stroke="rgb(0, 100, 200)" stroke-width="5" />
<line id="" x1="250" y1="380" x2="210" y2="380" stroke="rgb(0, 100, 200)" stroke-width="5" />
<line id="" x1="250" y1="380" x2="290" y2="380" stroke="rgb(0, 100, 200)" stroke-width="5" />
<line id="" x1="250" y1="430" x2="225" y2="480" stroke="rgb(50, 50, 50)" stroke-width="5" />
<line id="" x1="250" y1="430" x2="275" y2="480" stroke="rgb(50, 50, 50)" stroke-width="5" />
<circle id="" cx="400" cy="350" r="20" fill="rgb(255, 224, 189)" fill-opacity="1" stroke="rgb(255, 255, 255)" stroke-width="0" />
<line id="" x1="400" y1="370" x2="400" y2="430" stroke="rgb(0, 100, 200)" stroke-width="5" />
<line id="" x1="400" y1="380" x2="360" y2="380" stroke="rgb(0, 100, 200)" stroke-width="5" />
<line id="" x1="400" y1="380" x2="440" y2="380" stroke="rgb(0, 100, 200)" stroke-width="5" />
<line id="" x1="400" y1="430" x2="375" y2="480" stroke="rgb(50, 50, 50)" stroke-width="5" />
<line id="" x1="400" y1="430" x2="425" y2="480" stroke="rgb(50, 50, 50)" stroke-width="5" />
<circle id="" cx="550" cy="350" r="20" fill="rgb(255, 224, 189)" fill-opacity="1" stroke="rgb(255, 255, 255)" stroke-width="0" />
<line id="" x1="550" y1="370" x2="550" y2="430" stroke="rgb(0, 100, 200)" stroke-width="5" />
<line id="" x1="550" y1="380" x2="510" y2="380" stroke="rgb(0, 100, 200)" stroke-width="5" />
<line id="" x1="550" y1="380" x2="590" y2="380" stroke="rgb(0, 100, 200)" stroke-width="5" />
<line id="" x1="550" y1="430" x2="525" y2="480" stroke="rgb(50, 50, 50)" stroke-width="5" />
<line id="" x1="550" y1="430" x2="575" y2="480" stroke="rgb(50, 50, 50)" stroke-width="5" />
<circle id="" cx="700" cy="350" r="20" fill="rgb(255, 224, 189)" fill-opacity="1" stroke="rgb(255, 255, 255)" stroke-width="0" />
<line id="" x1="700" y1="370" x2="700" y2="430" stroke="rgb(0, 100, 200)" stroke-width="5" />
<line id="" x1="700" y1="380" x2="660" y2="380" stroke="rgb(0, 100, 200)" stroke-width="5" />
<line id="" x1="700" y1="380" x2="740" y2="380" stroke="rgb(0, 100, 200)" stroke-width="5" />
<line id="" x1="700" y1="430" x2="675" y2="480" stroke="rgb(50, 50, 50)" stroke-width="5" />
<line id="" x1="700" y1="430" x2="725" y2="480" stroke="rgb(50, 50, 50)" stroke-width="5" />
<circle id="" cx="175" cy="400" r="20" fill="rgb(255, 224, 189)" fill-opacity="1" stroke="rgb(255, 255, 255)" stroke-width="0" />
<line id="" x1="175" y1="420" x2="175" y2="480" stroke="rgb(0, 100, 200)" stroke-width="5" />
<line id="" x1="175" y1="430" x2="135" y2="430" stroke="rgb(0, 100, 200)" stroke-width="5" />
<line id="" x1="175" y1="430" x2="215" y2="430" stroke="rgb(0, 100, 200)" stroke-width="5" />
<line id="" x1="175" y1="480" x2="150" y2="530" stroke="rgb(50, 50, 50)" stroke-width="5" />
<line id="" x1="175" y1="480" x2="200" y2="530" stroke="rgb(50, 50, 50)" stroke-width="5" />
<circle id="" cx="325" cy="400" r="20" fill="rgb(255, 224, 189)" fill-opacity="1" stroke="rgb(255, 255, 255)" stroke-width="0" />
<line id="" x1="325" y1="420" x2="325" y2="480" stroke="rgb(0, 100, 200)" stroke-width="5" />
<line id="" x1="325" y1="430" x2="285" y2="430" stroke="rgb(0, 100, 200)" stroke-width="5" />
<line id="" x1="325" y1="430" x2="365" y2="430" stroke="rgb(0, 100, 200)" stroke-width="5" />
<line id="" x1="325" y1="480" x2="300" y2="530" stroke="rgb(50, 50, 50)" stroke-width="5" />
<line id="" x1="325" y1="480" x2="350" y2="530" stroke="rgb(50, 50, 50)" stroke-width="5" />
<circle id="" cx="475" cy="400" r="20" fill="rgb(255, 224, 189)" fill-opacity="1" stroke="rgb(255, 255, 255)" stroke-width="0" />
<line id="" x1="475" y1="420" x2="475" y2="480" stroke="rgb(0, 100, 200)" stroke-width="5" />
<line id="" x1="475" y1="430" x2="435" y2="430" stroke="rgb(0, 100, 200)" stroke-width="5" />
<line id="" x1="475" y1="430" x2="515" y2="430" stroke="rgb(0, 100, 200)" stroke-width="5" />
<line id="" x1="475" y1="480" x2="450" y2="530" stroke="rgb(50, 50, 50)" stroke-width="5" />
<line id="" x1="475" y1="480" x2="500" y2="530" stroke="rgb(50, 50, 50)" stroke-width="5" />
<circle id="" cx="625" cy="400" r="20" fill="rgb(255, 224, 189)" fill-opacity="1" stroke="rgb(255, 255, 255)" stroke-width="0" />
<line id="" x1="625" y1="420" x2="625" y2="480" stroke="rgb(0, 100, 200)" stroke-width="5" />
<line id="" x1="625" y1="430" x2="585" y2="430" stroke="rgb(0, 100, 200)" stroke-width="5" />
<line id="" x1="625" y1="430" x2="665" y2="430" stroke="rgb(0, 100, 200)" stroke-width="5" />
<line id="" x1="625" y1="480" x2="600" y2="530" stroke="rgb(50, 50, 50)" stroke-width="5" />
<line id="" x1="625" y1="480" x2="650" y2="530" stroke="rgb(50, 50, 50)" stroke-width="5" />
<circle id="" cx="100" cy="530" r="20" fill="rgb(255, 224, 189)" fill-opacity="1" stroke="rgb(255, 255, 255)" stroke-width="0" />
<line id="" x1="100" y1="550" x2="100" y2="610" stroke="rgb(0, 100, 200)" stroke-width="5" />
<line id="" x1="100" y1="560" x2="60" y2="560" stroke="rgb(0, 100, 200)" stroke-width="5" />
<line id="" x1="100" y1="560" x2="140" y2="560" stroke="rgb(0, 100, 200)" stroke-width="5" />
<line id="" x1="100" y1="610" x2="75" y2="660" stroke="rgb(50, 50, 50)" stroke-width="5" />
<line id="" x1="100" y1="610" x2="125" y2="660" stroke="rgb(50, 50, 50)" stroke-width="5" />
<circle id="" cx="250" cy="530" r="20" fill="rgb(255, 224, 189)" fill-opacity="1" stroke="rgb(255, 255, 255)" stroke-width="0" />
<line id="" x1="250" y1="550" x2="250" y2="610" stroke="rgb(0, 100, 200)" stroke-width="5" />
<line id="" x1="250" y1="560" x2="210" y2="560" stroke="rgb(0, 100, 200)" stroke-width="5" />
<line id="" x1="250" y1="560" x2="290" y2="560" stroke="rgb(0, 100, 200)" stroke-width="5" />
<line id="" x1="250" y1="610" x2="225" y2="660" stroke="rgb(50, 50, 50)" stroke-width="5" />
<line id="" x1="250" y1="610" x2="275" y2="660" stroke="rgb(50, 50, 50)" stroke-width="5" />
<circle id="" cx="400" cy="530" r="20" fill="rgb(255, 224, 189)" fill-opacity="1" stroke="rgb(255, 255, 255)" stroke-width="0" />
<line id="" x1="400" y1="550" x2="400" y2="610" stroke="rgb(0, 100, 200)" stroke-width="5" />
<line id="" x1="400" y1="560" x2="360" y2="560" stroke="rgb(0, 100, 200)" stroke-width="5" />
<line id="" x1="400" y1="560" x2="440" y2="560" stroke="rgb(0, 100, 200)" stroke-width="5" />
<line id="" x1="400" y1="610" x2="375" y2="660" stroke="rgb(50, 50, 50)" stroke-width="5" />
<line id="" x1="400" y1="610" x2="425" y2="660" stroke="rgb(50, 50, 50)" stroke-width="5" />
<circle id="" cx="550" cy="530" r="20" fill="rgb(255, 224, 189)" fill-opacity="1" stroke="rgb(255, 255, 255)" stroke-width="0" />
<line id="" x1="550" y1="550" x2="550" y2="610" stroke="rgb(0, 100, 200)" stroke-width="5" />
<line id="" x1="550" y1="560" x2="510" y2="560" stroke="rgb(0, 100, 200)" stroke-width="5" />
<line id="" x1="550" y1="560" x2="590" y2="560" stroke="rgb(0, 100, 200)" stroke-width="5" />
<line id="" x1="550" y1="610" x2="525" y2="660" stroke="rgb(50, 50, 50)" stroke-width="5" />
<line id="" x1="550" y1="610" x2="575" y2="660" stroke="rgb(50, 50, 50)" stroke-width="5" />
<circle id="" cx="700" cy="530" r="20" fill="rgb(255, 224, 189)" fill-opacity="1" stroke="rgb(255, 255, 255)" stroke-width="0" />
<line id="" x1="700" y1="550" x2="700" y2="610" stroke="rgb(0, 100, 200)" stroke-width="5" />
<line id="" x1="700" y1="560" x2="660" y2="560" stroke="rgb(0, 100, 200)" stroke-width="5" />
<line id="" x1="700" y1="560" x2="740" y2="560" stroke="rgb(0, 100, 200)" stroke-width="5" />
<line id="" x1="700" y1="610" x2="675" y2="660" stroke="rgb(50, 50, 50)" stroke-width="5" />
<line id="" x1="700" y1="610" x2="725" y2="660" stroke="rgb(50, 50, 50)" stroke-width="5" />
<text id="text" x="400" y="700" xml:space="preserve" fill="rgb(0, 0, 0)" dominant-baseline="middle" text-anchor="middle" font-family="Arial" font-weight="400" font-size="40">Stick Figure People</text>
</svg>
