<svg width="950" height="950" style="background-color: rgb(255, 255, 255)" xmlns="http://www.w3.org/2000/svg">
<linearGradient id="blackToBlue" x1="0%" y1="0%" x2="6,123233995736766E-15%" y2="100%">
<stop offset="0%" stop-color="rgb(0, 0, 0)" />
<stop offset="100%" stop-color="rgb(0, 0, 255)" />
</linearGradient>
<linearGradient id="blackToBlue" x1="0%" y1="0%" x2="6,123233995736766E-15%" y2="100%">
<stop offset="0%" stop-color="rgb(0, 0, 0)" />
<stop offset="100%" stop-color="rgb(0, 0, 255)" />
</linearGradient>
<rect id="" x="395" y="70" width="100" height="60" fill="url(#blackToBlue)" fill-opacity="1" rx="10" stroke="rgb(255, 255, 255)" stroke-width="0" />
<line id="" x1="445" y1="130" x2="535" y2="170" stroke="rgb(0, 0, 0)" stroke-width="4" />
<polygon id="" points="529.72015,172.03069 532.9693,164.7202 535,170 " fill="rgb(0, 0, 0)" fill-opacity="1" stroke="rgb(0, 0, 0)" stroke-width="4" />
<line id="" x1="445" y1="130" x2="355" y2="170" stroke="rgb(0, 0, 0)" stroke-width="4" />
<polygon id="" points="357.0307,164.7202 360.2798,172.03069 355,170 " fill="rgb(0, 0, 0)" fill-opacity="1" stroke="rgb(0, 0, 0)" stroke-width="4" />
<line id="" x1="445" y1="130" x2="445" y2="160" stroke="rgb(0, 0, 0)" stroke-width="4" />
<polygon id="" points="441,156 449,156 445,160 " fill="rgb(0, 0, 0)" fill-opacity="1" stroke="rgb(0, 0, 0)" stroke-width="4" />
<text id="" x="445" y="100" xml:space="preserve" fill="rgb(255, 255, 255)" dominant-baseline="middle" text-anchor="middle" font-family="Arial" font-weight="400" font-size="16">Expression</text>
<text id="" x="445" y="180" xml:space="preserve" fill="rgb(0, 0, 0)" dominant-baseline="middle" text-anchor="middle" font-family="Arial" font-weight="400" font-size="30">&amp;&amp;</text>
<linearGradient id="blackToBlue" x1="0%" y1="0%" x2="6,123233995736766E-15%" y2="100%">
<stop offset="0%" stop-color="rgb(0, 0, 0)" />
<stop offset="100%" stop-color="rgb(0, 0, 255)" />
</linearGradient>
<rect id="" x="275" y="175" width="100" height="60" fill="url(#blackToBlue)" fill-opacity="1" rx="10" stroke="rgb(255, 255, 255)" stroke-width="0" />
<line id="" x1="325" y1="235" x2="325" y2="275" stroke="rgb(0, 0, 0)" stroke-width="4" />
<polygon id="" points="321,271 329,271 325,275 " fill="rgb(0, 0, 0)" fill-opacity="1" stroke="rgb(0, 0, 0)" stroke-width="4" />
<text id="" x="325" y="205" xml:space="preserve" fill="rgb(255, 255, 255)" dominant-baseline="middle" text-anchor="middle" font-family="Arial" font-weight="400" font-size="16">EquExpr</text>
<linearGradient id="blackToBlue" x1="0%" y1="0%" x2="6,123233995736766E-15%" y2="100%">
<stop offset="0%" stop-color="rgb(0, 0, 0)" />
<stop offset="100%" stop-color="rgb(0, 0, 255)" />
</linearGradient>
<rect id="" x="515" y="175" width="100" height="60" fill="url(#blackToBlue)" fill-opacity="1" rx="10" stroke="rgb(255, 255, 255)" stroke-width="0" />
<line id="" x1="565" y1="235" x2="565" y2="275" stroke="rgb(0, 0, 0)" stroke-width="4" />
<polygon id="" points="561,271 569,271 565,275 " fill="rgb(0, 0, 0)" fill-opacity="1" stroke="rgb(0, 0, 0)" stroke-width="4" />
<text id="" x="565" y="205" xml:space="preserve" fill="rgb(255, 255, 255)" dominant-baseline="middle" text-anchor="middle" font-family="Arial" font-weight="400" font-size="16">EquExpr</text>
<linearGradient id="blackToBlue" x1="0%" y1="0%" x2="6,123233995736766E-15%" y2="100%">
<stop offset="0%" stop-color="rgb(0, 0, 0)" />
<stop offset="100%" stop-color="rgb(0, 0, 255)" />
</linearGradient>
<rect id="" x="235" y="280" width="100" height="60" fill="url(#blackToBlue)" fill-opacity="1" rx="10" stroke="rgb(255, 255, 255)" stroke-width="0" />
<line id="" x1="285" y1="340" x2="285" y2="380" stroke="rgb(0, 0, 0)" stroke-width="4" />
<polygon id="" points="281,376 289,376 285,380 " fill="rgb(0, 0, 0)" fill-opacity="1" stroke="rgb(0, 0, 0)" stroke-width="4" />
<text id="" x="285" y="310" xml:space="preserve" fill="rgb(255, 255, 255)" dominant-baseline="middle" text-anchor="middle" font-family="Arial" font-weight="400" font-size="16">RelExpr</text>
<linearGradient id="blackToBlue" x1="0%" y1="0%" x2="6,123233995736766E-15%" y2="100%">
<stop offset="0%" stop-color="rgb(0, 0, 0)" />
<stop offset="100%" stop-color="rgb(0, 0, 255)" />
</linearGradient>
<rect id="" x="555" y="280" width="100" height="60" fill="url(#blackToBlue)" fill-opacity="1" rx="10" stroke="rgb(255, 255, 255)" stroke-width="0" />
<line id="" x1="605" y1="340" x2="605" y2="380" stroke="rgb(0, 0, 0)" stroke-width="4" />
<polygon id="" points="601,376 609,376 605,380 " fill="rgb(0, 0, 0)" fill-opacity="1" stroke="rgb(0, 0, 0)" stroke-width="4" />
<text id="" x="605" y="310" xml:space="preserve" fill="rgb(255, 255, 255)" dominant-baseline="middle" text-anchor="middle" font-family="Arial" font-weight="400" font-size="16">RelExpr</text>
<linearGradient id="blackToBlue" x1="0%" y1="0%" x2="6,123233995736766E-15%" y2="100%">
<stop offset="0%" stop-color="rgb(0, 0, 0)" />
<stop offset="100%" stop-color="rgb(0, 0, 255)" />
</linearGradient>
<rect id="" x="195" y="385" width="100" height="60" fill="url(#blackToBlue)" fill-opacity="1" rx="10" stroke="rgb(255, 255, 255)" stroke-width="0" />
<line id="" x1="245" y1="445" x2="335" y2="485" stroke="rgb(0, 0, 0)" stroke-width="4" />
<polygon id="" points="329.7202,487.0307 332.9693,479.7202 335,485 " fill="rgb(0, 0, 0)" fill-opacity="1" stroke="rgb(0, 0, 0)" stroke-width="4" />
<line id="" x1="245" y1="445" x2="155" y2="485" stroke="rgb(0, 0, 0)" stroke-width="4" />
<polygon id="" points="157.03069,479.7202 160.2798,487.0307 155,485 " fill="rgb(0, 0, 0)" fill-opacity="1" stroke="rgb(0, 0, 0)" stroke-width="4" />
<line id="" x1="245" y1="445" x2="245" y2="475" stroke="rgb(0, 0, 0)" stroke-width="4" />
<polygon id="" points="241,471 249,471 245,475 " fill="rgb(0, 0, 0)" fill-opacity="1" stroke="rgb(0, 0, 0)" stroke-width="4" />
<text id="" x="245" y="415" xml:space="preserve" fill="rgb(255, 255, 255)" dominant-baseline="middle" text-anchor="middle" font-family="Arial" font-weight="400" font-size="16">BinExpr</text>
<text id="" x="245" y="495" xml:space="preserve" fill="rgb(0, 0, 0)" dominant-baseline="middle" text-anchor="middle" font-family="Arial" font-weight="400" font-size="30">+</text>
<linearGradient id="blackToBlue" x1="0%" y1="0%" x2="6,123233995736766E-15%" y2="100%">
<stop offset="0%" stop-color="rgb(0, 0, 0)" />
<stop offset="100%" stop-color="rgb(0, 0, 255)" />
</linearGradient>
<rect id="" x="595" y="385" width="100" height="60" fill="url(#blackToBlue)" fill-opacity="1" rx="10" stroke="rgb(255, 255, 255)" stroke-width="0" />
<line id="" x1="645" y1="445" x2="735" y2="485" stroke="rgb(0, 0, 0)" stroke-width="4" />
<polygon id="" points="729.72015,487.0307 732.9693,479.7202 735,485 " fill="rgb(0, 0, 0)" fill-opacity="1" stroke="rgb(0, 0, 0)" stroke-width="4" />
<line id="" x1="645" y1="445" x2="555" y2="485" stroke="rgb(0, 0, 0)" stroke-width="4" />
<polygon id="" points="557.0307,479.7202 560.27985,487.0307 555,485 " fill="rgb(0, 0, 0)" fill-opacity="1" stroke="rgb(0, 0, 0)" stroke-width="4" />
<line id="" x1="645" y1="445" x2="645" y2="475" stroke="rgb(0, 0, 0)" stroke-width="4" />
<polygon id="" points="641,471 649,471 645,475 " fill="rgb(0, 0, 0)" fill-opacity="1" stroke="rgb(0, 0, 0)" stroke-width="4" />
<text id="" x="645" y="415" xml:space="preserve" fill="rgb(255, 255, 255)" dominant-baseline="middle" text-anchor="middle" font-family="Arial" font-weight="400" font-size="16">BinExpr</text>
<text id="" x="645" y="495" xml:space="preserve" fill="rgb(0, 0, 0)" dominant-baseline="middle" text-anchor="middle" font-family="Arial" font-weight="400" font-size="30">-</text>
<linearGradient id="blackToBlue" x1="0%" y1="0%" x2="6,123233995736766E-15%" y2="100%">
<stop offset="0%" stop-color="rgb(0, 0, 0)" />
<stop offset="100%" stop-color="rgb(0, 0, 255)" />
</linearGradient>
<rect id="" x="105" y="490" width="100" height="60" fill="url(#blackToBlue)" fill-opacity="1" rx="10" stroke="rgb(255, 255, 255)" stroke-width="0" />
<line id="" x1="155" y1="550" x2="155" y2="590" stroke="rgb(0, 0, 0)" stroke-width="4" />
<polygon id="" points="151,586 159,586 155,590 " fill="rgb(0, 0, 0)" fill-opacity="1" stroke="rgb(0, 0, 0)" stroke-width="4" />
<text id="" x="155" y="520" xml:space="preserve" fill="rgb(255, 255, 255)" dominant-baseline="middle" text-anchor="middle" font-family="Arial" font-weight="400" font-size="16">MultExpr</text>
<linearGradient id="blackToBlue" x1="0%" y1="0%" x2="6,123233995736766E-15%" y2="100%">
<stop offset="0%" stop-color="rgb(0, 0, 0)" />
<stop offset="100%" stop-color="rgb(0, 0, 255)" />
</linearGradient>
<rect id="" x="315" y="490" width="100" height="60" fill="url(#blackToBlue)" fill-opacity="1" rx="10" stroke="rgb(255, 255, 255)" stroke-width="0" />
<line id="" x1="365" y1="550" x2="455" y2="590" stroke="rgb(0, 0, 0)" stroke-width="4" />
<polygon id="" points="449.7202,592.0307 452.9693,584.72015 455,590 " fill="rgb(0, 0, 0)" fill-opacity="1" stroke="rgb(0, 0, 0)" stroke-width="4" />
<line id="" x1="365" y1="550" x2="275" y2="590" stroke="rgb(0, 0, 0)" stroke-width="4" />
<polygon id="" points="277.0307,584.72015 280.2798,592.0307 275,590 " fill="rgb(0, 0, 0)" fill-opacity="1" stroke="rgb(0, 0, 0)" stroke-width="4" />
<line id="" x1="365" y1="550" x2="365" y2="580" stroke="rgb(0, 0, 0)" stroke-width="4" />
<polygon id="" points="361,576 369,576 365,580 " fill="rgb(0, 0, 0)" fill-opacity="1" stroke="rgb(0, 0, 0)" stroke-width="4" />
<text id="" x="365" y="520" xml:space="preserve" fill="rgb(255, 255, 255)" dominant-baseline="middle" text-anchor="middle" font-family="Arial" font-weight="400" font-size="16">MultExpr</text>
<text id="" x="365" y="600" xml:space="preserve" fill="rgb(0, 0, 0)" dominant-baseline="middle" text-anchor="middle" font-family="Arial" font-weight="400" font-size="30">*</text>
<linearGradient id="blackToBlue" x1="0%" y1="0%" x2="6,123233995736766E-15%" y2="100%">
<stop offset="0%" stop-color="rgb(0, 0, 0)" />
<stop offset="100%" stop-color="rgb(0, 0, 255)" />
</linearGradient>
<rect id="" x="105" y="595" width="100" height="60" fill="url(#blackToBlue)" fill-opacity="1" rx="10" stroke="rgb(255, 255, 255)" stroke-width="0" />
<line id="" x1="155" y1="655" x2="155" y2="695" stroke="rgb(0, 0, 0)" stroke-width="4" />
<polygon id="" points="151,691 159,691 155,695 " fill="rgb(0, 0, 0)" fill-opacity="1" stroke="rgb(0, 0, 0)" stroke-width="4" />
<text id="" x="155" y="625" xml:space="preserve" fill="rgb(255, 255, 255)" dominant-baseline="middle" text-anchor="middle" font-family="Arial" font-weight="400" font-size="16">UnaExpr</text>
<linearGradient id="blackToBlue" x1="0%" y1="0%" x2="6,123233995736766E-15%" y2="100%">
<stop offset="0%" stop-color="rgb(0, 0, 0)" />
<stop offset="100%" stop-color="rgb(0, 0, 255)" />
</linearGradient>
<rect id="" x="105" y="700" width="100" height="60" fill="url(#blackToBlue)" fill-opacity="1" rx="10" stroke="rgb(255, 255, 255)" stroke-width="0" />
<line id="" x1="155" y1="760" x2="155" y2="800" stroke="rgb(0, 0, 0)" stroke-width="4" />
<polygon id="" points="151,796 159,796 155,800 " fill="rgb(0, 0, 0)" fill-opacity="1" stroke="rgb(0, 0, 0)" stroke-width="4" />
<text id="" x="155" y="730" xml:space="preserve" fill="rgb(255, 255, 255)" dominant-baseline="middle" text-anchor="middle" font-family="Arial" font-weight="400" font-size="16">Number</text>
<linearGradient id="blackToBlue" x1="0%" y1="0%" x2="6,123233995736766E-15%" y2="100%">
<stop offset="0%" stop-color="rgb(0, 0, 0)" />
<stop offset="100%" stop-color="rgb(0, 0, 255)" />
</linearGradient>
<rect id="" x="235" y="595" width="100" height="60" fill="url(#blackToBlue)" fill-opacity="1" rx="10" stroke="rgb(255, 255, 255)" stroke-width="0" />
<line id="" x1="285" y1="655" x2="285" y2="695" stroke="rgb(0, 0, 0)" stroke-width="4" />
<polygon id="" points="281,691 289,691 285,695 " fill="rgb(0, 0, 0)" fill-opacity="1" stroke="rgb(0, 0, 0)" stroke-width="4" />
<text id="" x="285" y="625" xml:space="preserve" fill="rgb(255, 255, 255)" dominant-baseline="middle" text-anchor="middle" font-family="Arial" font-weight="400" font-size="16">UnaExpr</text>
<linearGradient id="blackToBlue" x1="0%" y1="0%" x2="6,123233995736766E-15%" y2="100%">
<stop offset="0%" stop-color="rgb(0, 0, 0)" />
<stop offset="100%" stop-color="rgb(0, 0, 255)" />
</linearGradient>
<rect id="" x="235" y="700" width="100" height="60" fill="url(#blackToBlue)" fill-opacity="1" rx="10" stroke="rgb(255, 255, 255)" stroke-width="0" />
<line id="" x1="285" y1="760" x2="285" y2="800" stroke="rgb(0, 0, 0)" stroke-width="4" />
<polygon id="" points="281,796 289,796 285,800 " fill="rgb(0, 0, 0)" fill-opacity="1" stroke="rgb(0, 0, 0)" stroke-width="4" />
<text id="" x="285" y="730" xml:space="preserve" fill="rgb(255, 255, 255)" dominant-baseline="middle" text-anchor="middle" font-family="Arial" font-weight="400" font-size="16">Number</text>
<linearGradient id="blackToBlue" x1="0%" y1="0%" x2="6,123233995736766E-15%" y2="100%">
<stop offset="0%" stop-color="rgb(0, 0, 0)" />
<stop offset="100%" stop-color="rgb(0, 0, 255)" />
</linearGradient>
<rect id="" x="395" y="595" width="100" height="60" fill="url(#blackToBlue)" fill-opacity="1" rx="10" stroke="rgb(255, 255, 255)" stroke-width="0" />
<line id="" x1="445" y1="655" x2="445" y2="695" stroke="rgb(0, 0, 0)" stroke-width="4" />
<polygon id="" points="441,691 449,691 445,695 " fill="rgb(0, 0, 0)" fill-opacity="1" stroke="rgb(0, 0, 0)" stroke-width="4" />
<text id="" x="445" y="625" xml:space="preserve" fill="rgb(255, 255, 255)" dominant-baseline="middle" text-anchor="middle" font-family="Arial" font-weight="400" font-size="16">UnaExpr</text>
<linearGradient id="blackToBlue" x1="0%" y1="0%" x2="6,123233995736766E-15%" y2="100%">
<stop offset="0%" stop-color="rgb(0, 0, 0)" />
<stop offset="100%" stop-color="rgb(0, 0, 255)" />
</linearGradient>
<rect id="" x="395" y="700" width="100" height="60" fill="url(#blackToBlue)" fill-opacity="1" rx="10" stroke="rgb(255, 255, 255)" stroke-width="0" />
<line id="" x1="445" y1="760" x2="445" y2="800" stroke="rgb(0, 0, 0)" stroke-width="4" />
<polygon id="" points="441,796 449,796 445,800 " fill="rgb(0, 0, 0)" fill-opacity="1" stroke="rgb(0, 0, 0)" stroke-width="4" />
<text id="" x="445" y="730" xml:space="preserve" fill="rgb(255, 255, 255)" dominant-baseline="middle" text-anchor="middle" font-family="Arial" font-weight="400" font-size="16">Identifier</text>
<linearGradient id="blackToBlue" x1="0%" y1="0%" x2="6,123233995736766E-15%" y2="100%">
<stop offset="0%" stop-color="rgb(0, 0, 0)" />
<stop offset="100%" stop-color="rgb(0, 0, 255)" />
</linearGradient>
<rect id="" x="505" y="490" width="100" height="60" fill="url(#blackToBlue)" fill-opacity="1" rx="10" stroke="rgb(255, 255, 255)" stroke-width="0" />
<line id="" x1="555" y1="550" x2="555" y2="590" stroke="rgb(0, 0, 0)" stroke-width="4" />
<polygon id="" points="551,586 559,586 555,590 " fill="rgb(0, 0, 0)" fill-opacity="1" stroke="rgb(0, 0, 0)" stroke-width="4" />
<text id="" x="555" y="520" xml:space="preserve" fill="rgb(255, 255, 255)" dominant-baseline="middle" text-anchor="middle" font-family="Arial" font-weight="400" font-size="16">MultExpr</text>
<linearGradient id="blackToBlue" x1="0%" y1="0%" x2="6,123233995736766E-15%" y2="100%">
<stop offset="0%" stop-color="rgb(0, 0, 0)" />
<stop offset="100%" stop-color="rgb(0, 0, 255)" />
</linearGradient>
<rect id="" x="705" y="490" width="100" height="60" fill="url(#blackToBlue)" fill-opacity="1" rx="10" stroke="rgb(255, 255, 255)" stroke-width="0" />
<line id="" x1="755" y1="550" x2="845" y2="590" stroke="rgb(0, 0, 0)" stroke-width="4" />
<polygon id="" points="839.72015,592.0307 842.9693,584.72015 845,590 " fill="rgb(0, 0, 0)" fill-opacity="1" stroke="rgb(0, 0, 0)" stroke-width="4" />
<line id="" x1="755" y1="550" x2="665" y2="590" stroke="rgb(0, 0, 0)" stroke-width="4" />
<polygon id="" points="667.0307,584.72015 670.27985,592.0307 665,590 " fill="rgb(0, 0, 0)" fill-opacity="1" stroke="rgb(0, 0, 0)" stroke-width="4" />
<line id="" x1="755" y1="550" x2="755" y2="580" stroke="rgb(0, 0, 0)" stroke-width="4" />
<polygon id="" points="751,576 759,576 755,580 " fill="rgb(0, 0, 0)" fill-opacity="1" stroke="rgb(0, 0, 0)" stroke-width="4" />
<text id="" x="755" y="520" xml:space="preserve" fill="rgb(255, 255, 255)" dominant-baseline="middle" text-anchor="middle" font-family="Arial" font-weight="400" font-size="16">MultExpr</text>
<text id="" x="755" y="600" xml:space="preserve" fill="rgb(0, 0, 0)" dominant-baseline="middle" text-anchor="middle" font-family="Arial" font-weight="400" font-size="30">/</text>
<linearGradient id="blackToBlue" x1="0%" y1="0%" x2="6,123233995736766E-15%" y2="100%">
<stop offset="0%" stop-color="rgb(0, 0, 0)" />
<stop offset="100%" stop-color="rgb(0, 0, 255)" />
</linearGradient>
<rect id="" x="505" y="595" width="100" height="60" fill="url(#blackToBlue)" fill-opacity="1" rx="10" stroke="rgb(255, 255, 255)" stroke-width="0" />
<line id="" x1="555" y1="655" x2="555" y2="695" stroke="rgb(0, 0, 0)" stroke-width="4" />
<polygon id="" points="551,691 559,691 555,695 " fill="rgb(0, 0, 0)" fill-opacity="1" stroke="rgb(0, 0, 0)" stroke-width="4" />
<text id="" x="555" y="625" xml:space="preserve" fill="rgb(255, 255, 255)" dominant-baseline="middle" text-anchor="middle" font-family="Arial" font-weight="400" font-size="16">UnaExpr</text>
<linearGradient id="blackToBlue" x1="0%" y1="0%" x2="6,123233995736766E-15%" y2="100%">
<stop offset="0%" stop-color="rgb(0, 0, 0)" />
<stop offset="100%" stop-color="rgb(0, 0, 255)" />
</linearGradient>
<rect id="" x="505" y="700" width="100" height="60" fill="url(#blackToBlue)" fill-opacity="1" rx="10" stroke="rgb(255, 255, 255)" stroke-width="0" />
<line id="" x1="555" y1="760" x2="555" y2="800" stroke="rgb(0, 0, 0)" stroke-width="4" />
<polygon id="" points="551,796 559,796 555,800 " fill="rgb(0, 0, 0)" fill-opacity="1" stroke="rgb(0, 0, 0)" stroke-width="4" />
<text id="" x="555" y="730" xml:space="preserve" fill="rgb(255, 255, 255)" dominant-baseline="middle" text-anchor="middle" font-family="Arial" font-weight="400" font-size="16">Identifier</text>
<linearGradient id="blackToBlue" x1="0%" y1="0%" x2="6,123233995736766E-15%" y2="100%">
<stop offset="0%" stop-color="rgb(0, 0, 0)" />
<stop offset="100%" stop-color="rgb(0, 0, 255)" />
</linearGradient>
<rect id="" x="635" y="595" width="100" height="60" fill="url(#blackToBlue)" fill-opacity="1" rx="10" stroke="rgb(255, 255, 255)" stroke-width="0" />
<line id="" x1="685" y1="655" x2="685" y2="695" stroke="rgb(0, 0, 0)" stroke-width="4" />
<polygon id="" points="681,691 689,691 685,695 " fill="rgb(0, 0, 0)" fill-opacity="1" stroke="rgb(0, 0, 0)" stroke-width="4" />
<text id="" x="685" y="625" xml:space="preserve" fill="rgb(255, 255, 255)" dominant-baseline="middle" text-anchor="middle" font-family="Arial" font-weight="400" font-size="16">UnaExpr</text>
<linearGradient id="blackToBlue" x1="0%" y1="0%" x2="6,123233995736766E-15%" y2="100%">
<stop offset="0%" stop-color="rgb(0, 0, 0)" />
<stop offset="100%" stop-color="rgb(0, 0, 255)" />
</linearGradient>
<rect id="" x="635" y="700" width="100" height="60" fill="url(#blackToBlue)" fill-opacity="1" rx="10" stroke="rgb(255, 255, 255)" stroke-width="0" />
<line id="" x1="685" y1="760" x2="685" y2="800" stroke="rgb(0, 0, 0)" stroke-width="4" />
<polygon id="" points="681,796 689,796 685,800 " fill="rgb(0, 0, 0)" fill-opacity="1" stroke="rgb(0, 0, 0)" stroke-width="4" />
<text id="" x="685" y="730" xml:space="preserve" fill="rgb(255, 255, 255)" dominant-baseline="middle" text-anchor="middle" font-family="Arial" font-weight="400" font-size="16">Identifier</text>
<linearGradient id="blackToBlue" x1="0%" y1="0%" x2="6,123233995736766E-15%" y2="100%">
<stop offset="0%" stop-color="rgb(0, 0, 0)" />
<stop offset="100%" stop-color="rgb(0, 0, 255)" />
</linearGradient>
<rect id="" x="795" y="595" width="100" height="60" fill="url(#blackToBlue)" fill-opacity="1" rx="10" stroke="rgb(255, 255, 255)" stroke-width="0" />
<line id="" x1="845" y1="655" x2="845" y2="695" stroke="rgb(0, 0, 0)" stroke-width="4" />
<polygon id="" points="841,691 849,691 845,695 " fill="rgb(0, 0, 0)" fill-opacity="1" stroke="rgb(0, 0, 0)" stroke-width="4" />
<text id="" x="845" y="625" xml:space="preserve" fill="rgb(255, 255, 255)" dominant-baseline="middle" text-anchor="middle" font-family="Arial" font-weight="400" font-size="16">UnaExpr</text>
<linearGradient id="blackToBlue" x1="0%" y1="0%" x2="6,123233995736766E-15%" y2="100%">
<stop offset="0%" stop-color="rgb(0, 0, 0)" />
<stop offset="100%" stop-color="rgb(0, 0, 255)" />
</linearGradient>
<rect id="" x="795" y="700" width="100" height="60" fill="url(#blackToBlue)" fill-opacity="1" rx="10" stroke="rgb(255, 255, 255)" stroke-width="0" />
<line id="" x1="845" y1="760" x2="845" y2="800" stroke="rgb(0, 0, 0)" stroke-width="4" />
<polygon id="" points="841,796 849,796 845,800 " fill="rgb(0, 0, 0)" fill-opacity="1" stroke="rgb(0, 0, 0)" stroke-width="4" />
<text id="" x="845" y="730" xml:space="preserve" fill="rgb(255, 255, 255)" dominant-baseline="middle" text-anchor="middle" font-family="Arial" font-weight="400" font-size="16">Identifier</text>
<text id="text" x="475" y="845" xml:space="preserve" fill="rgb(0, 0, 0)" dominant-baseline="middle" text-anchor="middle" font-family="Arial" font-weight="400" font-size="40">     10   +  10     *      a  &amp;&amp;  b   -    !a     /     -b</text>
</svg>
