<svg width="500" height="250" style="background-color: rgb(255, 255, 255)" xmlns="http://www.w3.org/2000/svg">
<circle id="" cx="250" cy="125" r="50" fill="rgb(255, 0, 0)" fill-opacity="1" stroke="rgb(255, 0, 0)" stroke-width="0" />
<polygon id="" points="250,75 249.12782,75.007614 248.2559,75.030426 247.38452,75.06845 246.51395,75.12167 245.64441,75.19008 244.77621,75.27363 243.9096,75.372314 243.04485,75.4861 242.1822,75.61496 241.32195,75.75885 240.46432,75.91771 239.6096,76.09152 238.75806,76.280205 237.90991,76.48372 237.06546,76.70199 236.22493,76.93497 235.38861,77.18256 234.55673,77.44471 233.72954,77.72134 232.90732,78.012344 232.09027,78.31765 231.2787,78.63716 230.47281,78.97078 229.67287,79.318405 228.87912,79.67993 228.09178,80.05525 227.31113,80.444244 226.53737,80.8468 225.77075,81.262794 225.0115,81.69209 224.25986,82.13457 223.51605,82.59009 222.7803,83.05852 222.05283,83.5397 221.33386,84.03351 220.62363,84.53978 219.92233,85.058365 219.2302,85.58911 218.54741,86.131836 217.87419,86.6864 217.21075,87.25261 216.55728,87.83032 215.914,88.41933 215.2811,89.019485 214.65875,89.63058 214.04716,90.25243 213.4465,90.884865 212.85698,91.52768 212.27876,92.18068 211.712,92.84366 211.15692,93.51643 210.61365,94.198784 210.08235,94.89051 209.5632,95.5914 209.05637,96.30122 208.562,97.0198 208.08023,97.74688 207.6112,98.48226 207.15509,99.22571 206.71202,99.977 206.2821,100.7359 205.86551,101.5022 205.46234,102.275635 205.07272,103.055984 204.69678,103.84302 204.33461,104.63649 203.98634,105.43616 203.65208,106.241776 203.33192,107.05311 203.02597,107.869896 202.73431,108.6919 202.45703,109.51887 202.19421,110.35055 201.94595,111.186676 201.71231,112.027016 201.49335,112.8713 201.28917,113.71928 201.0998,114.57069 200.92532,115.42527 200.76576,116.28276 200.6212,117.142914 200.49165,118.005455 200.37718,118.870125 200.2778,119.73666 200.19354,120.60479 200.12447,121.474266 200.07056,122.34481 200.03183,123.21616 200.00832,124.08806 200.00002,124.960236 200.00693,125.83242 200.02905,126.70435 200.06639,127.57577 200.11893,128.4464 200.18661,129.31598 200.26949,130.18425 200.3675,131.05093 200.48059,131.91579 200.60876,132.77853 200.75197,133.63892 200.91016,134.49666 201.08327,135.35152 201.27129,136.20323 201.47412,137.05153 201.69173,137.89616 201.92404,138.73686 202.17096,139.5734 202.43246,140.40549 202.70844,141.2329 202.99878,142.05536 203.30344,142.87263 203.62231,143.68448 203.95529,144.49063 204.30228,145.29085 204.66318,146.08488 205.03787,146.87251 205.42624,147.65349 205.82819,148.42755 206.24356,149.1945 206.67226,149.95409 207.11414,150.70609 207.56906,151.45026 208.0369,152.18637 208.51752,152.91422 209.01076,153.63356 209.51645,154.34421 210.03447,155.04591 210.56467,155.73848 211.10686,156.42169 211.66087,157.09534 212.22656,157.75923 212.80374,158.41315 213.39224,159.05688 213.99188,159.69028 214.60248,160.31311 215.22385,160.92519 215.8558,161.52634 216.49814,162.11638 217.15068,162.69513 217.81322,163.26239 218.48553,163.81802 219.16747,164.36183 219.85876,164.89368 220.55923,165.41338 221.26865,165.92078 221.98683,166.41573 222.71353,166.89806 223.44852,167.36768 224.1916,167.82437 224.94255,168.26804 225.7011,168.69855 226.46704,169.11575 227.24016,169.51955 228.0202,169.90977 228.80693,170.28635 229.60011,170.64914 230.39949,170.99803 231.20483,171.33295 232.0159,171.65375 232.83244,171.96036 233.65422,172.25267 234.48096,172.53061 235.31242,172.79408 236.14835,173.043 236.9885,173.27731 237.8326,173.49695 238.6804,173.7018 239.53165,173.89186 240.3861,174.06702 241.24345,174.22725 242.10349,174.37251 242.9659,174.50275 243.83047,174.6179 244.69693,174.71799 245.56497,174.80292 246.43437,174.87271 247.30489,174.92732 248.1762,174.96674 249.04808,174.99094 249.92023,174.99994 250.79242,174.99373 251.66438,174.97229 252.53581,174.93565 253.40648,174.88382 254.27611,174.8168 255.14441,174.73465 256.0112,174.63736 256.87613,174.52495 257.73895,174.39746 258.59946,174.25494 259.45734,174.09746 260.31232,173.92502 261.16418,173.73767 262.0126,173.53552 262.85742,173.3186 263.6983,173.08698 264.53506,172.84071 265.36734,172.57988 266.19495,172.30458 267.01767,172.0149 267.83517,171.71088 268.64725,171.39268 269.45367,171.06033 270.25415,170.714 271.04846,170.35373 271.8364,169.97969 272.6177,169.59193 273.39206,169.19063 274.15933,168.77585 274.91928,168.3478 275.67163,167.9065 276.41617,167.45218 277.15265,166.98491 277.8809,166.5049 278.60065,166.01224 279.31168,165.50711 280.0138,164.98965 280.70682,164.46 281.39047,163.91838 282.0645,163.3649 282.72888,162.79973 283.38327,162.22307 284.0275,161.6351 284.66132,161.03596 285.28464,160.42587 285.89725,159.805 286.49893,159.17352 287.08948,158.53168 287.66873,157.87956 288.2365,157.21748 288.7927,156.5456 289.3371,155.8641 289.86948,155.17326 290.38974,154.47318 290.89774,153.76411 291.39325,153.04636 291.87616,152.32 292.3464,151.58542 292.8037,150.84268 293.24796,150.0921 293.6791,149.33388 294.0969,148.56824 294.50134,147.79544 294.8922,147.01572 295.2694,146.22922 295.6328,145.43636 295.98233,144.63724 296.3179,143.83212 296.63934,143.0213 296.94662,142.205 297.2396,141.3835 297.5182,140.55696 297.78238,139.7257 298.03192,138.88994 298.26697,138.04997 298.4872,137.20605 298.69275,136.35844 298.88348,135.50726 299.05936,134.65294 299.2203,133.79572 299.3662,132.93578 299.49716,132.07343 299.61298,131.20894 299.71375,130.34256 299.79938,129.47453 299.86987,128.60515 299.92514,127.73469 299.9652,126.86338 299.9901,125.99157 299.99982,125.11942 299.9943,124.247185 299.97354,123.37528 299.93762,122.50378 299.88644,121.63306 299.8202,120.76327 299.73865,119.89493 299.64206,119.02796 299.53033,118.163025 299.40356,117.30009 299.26172,116.43942 299.10486,115.58144 298.9331,114.72622 298.7465,113.87424 298.54498,113.02559 298.32864,112.180695 298.09775,111.339554 297.85208,110.502686 297.59195,109.67013 297.31735,108.842224 297.0282,108.01927 296.72485,107.20149 250,125 " fill="rgb(0, 0, 255)" fill-opacity="1" stroke="rgb(255, 255, 255)" stroke-width="0" />
</svg>
