<svg width="500" height="950" style="background-color: rgb(255, 255, 255)" xmlns="http://www.w3.org/2000/svg">
<rect id="" x="0" y="825" width="100" height="50" fill="rgb(0, 0, 255)" fill-opacity="1" rx="0" stroke="rgb(255, 255, 255)" stroke-width="0" />
<line id="" x1="100" y1="850" x2="140" y2="890" stroke="rgb(0, 0, 0)" stroke-width="1" />
<polygon id="" points="140,890 138.58578,890 140,888.5858" fill="rgb(0, 0, 0)" fill-opacity="1" stroke="rgb(0, 0, 0)" stroke-width="1" />
<line id="" x1="100" y1="850" x2="140" y2="810" stroke="rgb(0, 0, 0)" stroke-width="1" />
<polygon id="" points="140,810 140,811.4142 138.58578,810" fill="rgb(0, 0, 0)" fill-opacity="1" stroke="rgb(0, 0, 0)" stroke-width="1" />
<text id="" x="50" y="850" fill="rgb(255, 255, 255)" dominant-baseline="middle" text-anchor="middle" font-family="Arial" font-weight="400" font-size="12">Hello</text>
<rect id="" x="130" y="825" width="100" height="50" fill="rgb(0, 0, 255)" fill-opacity="1" rx="0" stroke="rgb(255, 255, 255)" stroke-width="0" />
<line id="" x1="230" y1="850" x2="270" y2="890" stroke="rgb(0, 0, 0)" stroke-width="1" />
<polygon id="" points="270,890 268.58582,890 270,888.5858" fill="rgb(0, 0, 0)" fill-opacity="1" stroke="rgb(0, 0, 0)" stroke-width="1" />
<line id="" x1="230" y1="850" x2="270" y2="810" stroke="rgb(0, 0, 0)" stroke-width="1" />
<polygon id="" points="270,810 270,811.4142 268.58582,810" fill="rgb(0, 0, 0)" fill-opacity="1" stroke="rgb(0, 0, 0)" stroke-width="1" />
<text id="" x="180" y="850" fill="rgb(255, 255, 255)" dominant-baseline="middle" text-anchor="middle" font-family="Arial" font-weight="400" font-size="12">Hello</text>
<rect id="" x="130" y="825" width="100" height="50" fill="rgb(0, 0, 255)" fill-opacity="1" rx="0" stroke="rgb(255, 255, 255)" stroke-width="0" />
<line id="" x1="230" y1="850" x2="270" y2="890" stroke="rgb(0, 0, 0)" stroke-width="1" />
<polygon id="" points="270,890 268.58582,890 270,888.5858" fill="rgb(0, 0, 0)" fill-opacity="1" stroke="rgb(0, 0, 0)" stroke-width="1" />
<line id="" x1="230" y1="850" x2="270" y2="810" stroke="rgb(0, 0, 0)" stroke-width="1" />
<polygon id="" points="270,810 270,811.4142 268.58582,810" fill="rgb(0, 0, 0)" fill-opacity="1" stroke="rgb(0, 0, 0)" stroke-width="1" />
<text id="" x="180" y="850" fill="rgb(255, 255, 255)" dominant-baseline="middle" text-anchor="middle" font-family="Arial" font-weight="400" font-size="12">Hello</text>
<rect id="" x="130" y="825" width="100" height="50" fill="rgb(0, 0, 255)" fill-opacity="1" rx="0" stroke="rgb(255, 255, 255)" stroke-width="0" />
<line id="" x1="230" y1="850" x2="270" y2="890" stroke="rgb(0, 0, 0)" stroke-width="1" />
<polygon id="" points="270,890 268.58582,890 270,888.5858" fill="rgb(0, 0, 0)" fill-opacity="1" stroke="rgb(0, 0, 0)" stroke-width="1" />
<line id="" x1="230" y1="850" x2="270" y2="810" stroke="rgb(0, 0, 0)" stroke-width="1" />
<polygon id="" points="270,810 270,811.4142 268.58582,810" fill="rgb(0, 0, 0)" fill-opacity="1" stroke="rgb(0, 0, 0)" stroke-width="1" />
<text id="" x="180" y="850" fill="rgb(255, 255, 255)" dominant-baseline="middle" text-anchor="middle" font-family="Arial" font-weight="400" font-size="12">Hello</text>
<rect id="" x="130" y="825" width="100" height="50" fill="rgb(0, 0, 255)" fill-opacity="1" rx="0" stroke="rgb(255, 255, 255)" stroke-width="0" />
<line id="" x1="230" y1="850" x2="270" y2="890" stroke="rgb(0, 0, 0)" stroke-width="1" />
<polygon id="" points="270,890 268.58582,890 270,888.5858" fill="rgb(0, 0, 0)" fill-opacity="1" stroke="rgb(0, 0, 0)" stroke-width="1" />
<line id="" x1="230" y1="850" x2="270" y2="810" stroke="rgb(0, 0, 0)" stroke-width="1" />
<polygon id="" points="270,810 270,811.4142 268.58582,810" fill="rgb(0, 0, 0)" fill-opacity="1" stroke="rgb(0, 0, 0)" stroke-width="1" />
<text id="" x="180" y="850" fill="rgb(255, 255, 255)" dominant-baseline="middle" text-anchor="middle" font-family="Arial" font-weight="400" font-size="12">Hello</text>
<rect id="" x="130" y="825" width="100" height="50" fill="rgb(0, 0, 255)" fill-opacity="1" rx="0" stroke="rgb(255, 255, 255)" stroke-width="0" />
<line id="" x1="230" y1="850" x2="270" y2="890" stroke="rgb(0, 0, 0)" stroke-width="1" />
<polygon id="" points="270,890 268.58582,890 270,888.5858" fill="rgb(0, 0, 0)" fill-opacity="1" stroke="rgb(0, 0, 0)" stroke-width="1" />
<line id="" x1="230" y1="850" x2="270" y2="810" stroke="rgb(0, 0, 0)" stroke-width="1" />
<polygon id="" points="270,810 270,811.4142 268.58582,810" fill="rgb(0, 0, 0)" fill-opacity="1" stroke="rgb(0, 0, 0)" stroke-width="1" />
<text id="" x="180" y="850" fill="rgb(255, 255, 255)" dominant-baseline="middle" text-anchor="middle" font-family="Arial" font-weight="400" font-size="12">Hello</text>
<rect id="" x="130" y="825" width="100" height="50" fill="rgb(0, 0, 255)" fill-opacity="1" rx="0" stroke="rgb(255, 255, 255)" stroke-width="0" />
<line id="" x1="230" y1="850" x2="270" y2="890" stroke="rgb(0, 0, 0)" stroke-width="1" />
<polygon id="" points="270,890 268.58582,890 270,888.5858" fill="rgb(0, 0, 0)" fill-opacity="1" stroke="rgb(0, 0, 0)" stroke-width="1" />
<line id="" x1="230" y1="850" x2="270" y2="810" stroke="rgb(0, 0, 0)" stroke-width="1" />
<polygon id="" points="270,810 270,811.4142 268.58582,810" fill="rgb(0, 0, 0)" fill-opacity="1" stroke="rgb(0, 0, 0)" stroke-width="1" />
<text id="" x="180" y="850" fill="rgb(255, 255, 255)" dominant-baseline="middle" text-anchor="middle" font-family="Arial" font-weight="400" font-size="12">Hello</text>
<rect id="" x="130" y="825" width="100" height="50" fill="rgb(0, 0, 255)" fill-opacity="1" rx="0" stroke="rgb(255, 255, 255)" stroke-width="0" />
<line id="" x1="230" y1="850" x2="270" y2="890" stroke="rgb(0, 0, 0)" stroke-width="1" />
<polygon id="" points="270,890 268.58582,890 270,888.5858" fill="rgb(0, 0, 0)" fill-opacity="1" stroke="rgb(0, 0, 0)" stroke-width="1" />
<line id="" x1="230" y1="850" x2="270" y2="810" stroke="rgb(0, 0, 0)" stroke-width="1" />
<polygon id="" points="270,810 270,811.4142 268.58582,810" fill="rgb(0, 0, 0)" fill-opacity="1" stroke="rgb(0, 0, 0)" stroke-width="1" />
<text id="" x="180" y="850" fill="rgb(255, 255, 255)" dominant-baseline="middle" text-anchor="middle" font-family="Arial" font-weight="400" font-size="12">Hello</text>
<rect id="" x="130" y="825" width="100" height="50" fill="rgb(0, 0, 255)" fill-opacity="1" rx="0" stroke="rgb(255, 255, 255)" stroke-width="0" />
<line id="" x1="230" y1="850" x2="270" y2="890" stroke="rgb(0, 0, 0)" stroke-width="1" />
<polygon id="" points="270,890 268.58582,890 270,888.5858" fill="rgb(0, 0, 0)" fill-opacity="1" stroke="rgb(0, 0, 0)" stroke-width="1" />
<line id="" x1="230" y1="850" x2="270" y2="810" stroke="rgb(0, 0, 0)" stroke-width="1" />
<polygon id="" points="270,810 270,811.4142 268.58582,810" fill="rgb(0, 0, 0)" fill-opacity="1" stroke="rgb(0, 0, 0)" stroke-width="1" />
<text id="" x="180" y="850" fill="rgb(255, 255, 255)" dominant-baseline="middle" text-anchor="middle" font-family="Arial" font-weight="400" font-size="12">Hello</text>
<rect id="" x="130" y="825" width="100" height="50" fill="rgb(0, 0, 255)" fill-opacity="1" rx="0" stroke="rgb(255, 255, 255)" stroke-width="0" />
<line id="" x1="230" y1="850" x2="270" y2="890" stroke="rgb(0, 0, 0)" stroke-width="1" />
<polygon id="" points="270,890 268.58582,890 270,888.5858" fill="rgb(0, 0, 0)" fill-opacity="1" stroke="rgb(0, 0, 0)" stroke-width="1" />
<line id="" x1="230" y1="850" x2="270" y2="810" stroke="rgb(0, 0, 0)" stroke-width="1" />
<polygon id="" points="270,810 270,811.4142 268.58582,810" fill="rgb(0, 0, 0)" fill-opacity="1" stroke="rgb(0, 0, 0)" stroke-width="1" />
<text id="" x="180" y="850" fill="rgb(255, 255, 255)" dominant-baseline="middle" text-anchor="middle" font-family="Arial" font-weight="400" font-size="12">Hello</text>
<circle id="" cx="250" cy="475" r="50" fill="rgb(255, 0, 0)" fill-opacity="1" stroke="rgb(255, 0, 0)" stroke-width="0" />
<polygon id="" points="250,425 249.12782,425.0076 248.2559,425.03043 247.38452,425.06845 246.51395,425.12167 245.64441,425.19006 244.77621,425.27362 243.9096,425.3723 243.04485,425.4861 242.1822,425.61496 241.32195,425.75885 240.46432,425.91772 239.6096,426.09152 238.75806,426.2802 237.90991,426.4837 237.06546,426.702 236.22493,426.93497 235.38861,427.18256 234.55673,427.4447 233.72954,427.72134 232.90732,428.01233 232.09027,428.31766 231.2787,428.63715 230.47281,428.9708 229.67287,429.31842 228.87912,429.67993 228.09178,430.05527 227.31113,430.44424 226.53737,430.8468 225.77075,431.2628 225.0115,431.69208 224.25986,432.13458 223.51605,432.5901 222.7803,433.05853 222.05283,433.5397 221.33386,434.0335 220.62363,434.5398 219.92233,435.05838 219.2302,435.5891 218.54741,436.13184 217.87419,436.6864 217.21075,437.25262 216.55728,437.83032 215.914,438.41934 215.2811,439.01947 214.65875,439.63058 214.04716,440.25244 213.4465,440.88486 212.85698,441.52768 212.27876,442.18066 211.712,442.84366 211.15692,443.51642 210.61365,444.1988 210.08235,444.8905 209.5632,445.5914 209.05637,446.30124 208.562,447.0198 208.08023,447.7469 207.6112,448.48227 207.15509,449.2257 206.71202,449.977 206.2821,450.7359 205.86551,451.5022 205.46234,452.27563 205.07272,453.056 204.69678,453.84302 204.33461,454.6365 203.98634,455.43616 203.65208,456.2418 203.33192,457.0531 203.02597,457.8699 202.73431,458.6919 202.45703,459.51886 202.19421,460.35056 201.94595,461.18668 201.71231,462.027 201.49335,462.8713 201.28917,463.71927 201.0998,464.57068 200.92532,465.42526 200.76576,466.28278 200.6212,467.1429 200.49165,468.00546 200.37718,468.87012 200.2778,469.73666 200.19354,470.6048 200.12447,471.47427 200.07056,472.34482 200.03183,473.21616 200.00832,474.08804 200.00002,474.96024 200.00693,475.83243 200.02905,476.70435 200.06639,477.57578 200.11893,478.44638 200.18661,479.31598 200.26949,480.18423 200.3675,481.05093 200.48059,481.9158 200.60876,482.77853 200.75197,483.63892 200.91016,484.49667 201.08327,485.35153 201.27129,486.20322 201.47412,487.0515 201.69173,487.89615 201.92404,488.73688 202.17096,489.5734 202.43246,490.4055 202.70844,491.2329 202.99878,492.05536 203.30344,492.87262 203.62231,493.68448 203.95529,494.49063 204.30228,495.29086 204.66318,496.0849 205.03787,496.87253 205.42624,497.65347 205.82819,498.42755 206.24356,499.19452 206.67226,499.9541 207.11414,500.7061 207.56906,501.45026 208.0369,502.18637 208.51752,502.9142 209.01076,503.63358 209.51645,504.3442 210.03447,505.0459 210.56467,505.73846 211.10686,506.4217 211.66087,507.09534 212.22656,507.75922 212.80374,508.41315 213.39224,509.0569 213.99188,509.69028 214.60248,510.3131 215.22385,510.9252 215.8558,511.52634 216.49814,512.1164 217.15068,512.6951 217.81322,513.2624 218.48553,513.818 219.16747,514.3618 219.85876,514.8937 220.55923,515.4134 221.26865,515.9208 221.98683,516.4157 222.71353,516.8981 223.44852,517.3677 224.1916,517.82434 224.94255,518.268 225.7011,518.69855 226.46704,519.1157 227.24016,519.51953 228.0202,519.9098 228.80693,520.2863 229.60011,520.6492 230.39949,520.99805 231.20483,521.33295 232.0159,521.65375 232.83244,521.9603 233.65422,522.2527 234.48096,522.5306 235.31242,522.79407 236.14835,523.043 236.9885,523.27734 237.8326,523.49695 238.6804,523.7018 239.53165,523.89185 240.3861,524.067 241.24345,524.22723 242.10349,524.3725 242.9659,524.50275 243.83047,524.6179 244.69693,524.71796 245.56497,524.8029 246.43437,524.8727 247.30489,524.9273 248.1762,524.96674 249.04808,524.9909 249.92023,524.99994 250.79242,524.9937 251.66438,524.9723 252.53581,524.93567 253.40648,524.88385 254.27611,524.81683 255.14441,524.7346 256.0112,524.6373 256.87613,524.52496 257.73895,524.39746 258.59946,524.25494 259.45734,524.0975 260.31232,523.925 261.16418,523.7377 262.0126,523.5355 262.85742,523.3186 263.6983,523.087 264.53506,522.8407 265.36734,522.5799 266.19495,522.30457 267.01767,522.0149 267.83517,521.7109 268.64725,521.3927 269.45367,521.0603 270.25415,520.714 271.04846,520.35376 271.8364,519.9797 272.6177,519.5919 273.39206,519.1906 274.15933,518.7759 274.91928,518.3478 275.67163,517.9065 276.41617,517.45215 277.15265,516.9849 277.8809,516.5049 278.60065,516.0122 279.31168,515.5071 280.0138,514.9896 280.70682,514.46 281.39047,513.9184 282.0645,513.36487 282.72888,512.79974 283.38327,512.2231 284.0275,511.6351 284.66132,511.03598 285.28464,510.42587 285.89725,509.805 286.49893,509.17352 287.08948,508.53168 287.66873,507.87958 288.2365,507.21747 288.7927,506.5456 289.3371,505.8641 289.86948,505.17328 290.38974,504.47318 290.89774,503.7641 291.39325,503.04636 291.87616,502.32 292.3464,501.58542 292.8037,500.84268 293.24796,500.0921 293.6791,499.33386 294.0969,498.56824 294.50134,497.79544 294.8922,497.01572 295.2694,496.22922 295.6328,495.43637 295.98233,494.63724 296.3179,493.83212 296.63934,493.0213 296.94662,492.205 297.2396,491.3835 297.5182,490.55695 297.78238,489.72568 298.03192,488.88995 298.26697,488.05 298.4872,487.20605 298.69275,486.35843 298.88348,485.50726 299.05936,484.65292 299.2203,483.79572 299.3662,482.9358 299.49716,482.07343 299.61298,481.20892 299.71375,480.34256 299.79938,479.47455 299.86987,478.60516 299.92514,477.73468 299.9652,476.86337 299.9901,475.99158 299.99982,475.11942 299.9943,474.2472 299.97354,473.37527 299.93762,472.50378 299.88644,471.63306 299.8202,470.76328 299.73865,469.89493 299.64206,469.02795 299.53033,468.16302 299.40356,467.30008 299.26172,466.43942 299.10486,465.58145 298.9331,464.72623 298.7465,463.87424 298.54498,463.02557 298.32864,462.1807 298.09775,461.33954 297.85208,460.5027 297.59195,459.67014 297.31735,458.84222 297.0282,458.0193 296.72485,457.2015 250,475 " fill="rgb(0, 0, 255)" fill-opacity="1" stroke="rgb(255, 255, 255)" stroke-width="0" />
</svg>
