<svg width="500" height="500" style="background-color: rgb(255, 255, 255)" xmlns="http://www.w3.org/2000/svg">
<circle id="c" cx="250" cy="250" r="50" fill="rgb(0, 0, 255)" fill-opacity="1" stroke="rgb(255, 0, 0)" stroke-width="1" />
<polygon id="" points="250,200 249.12782,200.00761 248.2559,200.03043 247.38452,200.06845 246.51395,200.12167 245.64441,200.19008 244.77621,200.27362 243.9096,200.37231 243.04485,200.4861 242.1822,200.61496 241.32195,200.75885 240.46432,200.91771 239.6096,201.09152 238.75806,201.28021 237.90991,201.48372 237.06546,201.702 236.22493,201.93497 235.38861,202.18256 234.55673,202.4447 233.72954,202.72134 232.90732,203.01234 232.09027,203.31766 231.2787,203.63716 230.47281,203.97078 229.67287,204.3184 228.87912,204.67993 228.09178,205.05525 227.31113,205.44424 226.53737,205.8468 225.77075,206.26279 225.0115,206.6921 224.25986,207.13457 223.51605,207.59009 222.7803,208.05852 222.05283,208.5397 221.33386,209.03351 220.62363,209.53978 219.92233,210.05836 219.2302,210.58911 218.54741,211.13184 217.87419,211.6864 217.21075,212.25261 216.55728,212.83032 215.914,213.41933 215.2811,214.01949 214.65875,214.63058 214.04716,215.25244 213.4465,215.88486 212.85698,216.52768 212.27876,217.18068 211.712,217.84366 211.15692,218.51643 210.61365,219.19879 210.08235,219.8905 209.5632,220.5914 209.05637,221.30122 208.562,222.0198 208.08023,222.74689 207.6112,223.48225 207.15509,224.22571 206.71202,224.97699 206.2821,225.7359 205.86551,226.5022 205.46234,227.27563 205.07272,228.05598 204.69678,228.84302 204.33461,229.63649 203.98634,230.43616 203.65208,231.24178 203.33192,232.0531 203.02597,232.8699 202.73431,233.69191 202.45703,234.51888 202.19421,235.35054 201.94595,236.18668 201.71231,237.02701 201.49335,237.8713 201.28917,238.71928 201.0998,239.57068 200.92532,240.42526 200.76576,241.28276 200.6212,242.14291 200.49165,243.00545 200.37718,243.87012 200.2778,244.73666 200.19354,245.6048 200.12447,246.47426 200.07056,247.3448 200.03183,248.21616 200.00832,249.08806 200.00002,249.96024 200.00693,250.83243 200.02905,251.70436 200.06639,252.57578 200.11893,253.4464 200.18661,254.31598 200.26949,255.18425 200.3675,256.05093 200.48059,256.9158 200.60876,257.77853 200.75197,258.63892 200.91016,259.49667 201.08327,260.35153 201.27129,261.20322 201.47412,262.0515 201.69173,262.89615 201.92404,263.73688 202.17096,264.5734 202.43246,265.4055 202.70844,266.2329 202.99878,267.05536 203.30344,267.87262 203.62231,268.68448 203.95529,269.49063 204.30228,270.29086 204.66318,271.0849 205.03787,271.87253 205.42624,272.65347 205.82819,273.42755 206.24356,274.19452 206.67226,274.9541 207.11414,275.7061 207.56906,276.45026 208.0369,277.18637 208.51752,277.9142 209.01076,278.63358 209.51645,279.3442 210.03447,280.0459 210.56467,280.73846 211.10686,281.4217 211.66087,282.09534 212.22656,282.75922 212.80374,283.41315 213.39224,284.0569 213.99188,284.69028 214.60248,285.3131 215.22385,285.9252 215.8558,286.52634 216.49814,287.11636 217.15068,287.69513 217.81322,288.2624 218.48553,288.81802 219.16747,289.36185 219.85876,289.89368 220.55923,290.41336 221.26865,290.92078 221.98683,291.4157 222.71353,291.89807 223.44852,292.36768 224.1916,292.82437 224.94255,293.26804 225.7011,293.69855 226.46704,294.11575 227.24016,294.51953 228.0202,294.9098 228.80693,295.28635 229.60011,295.64914 230.39949,295.99805 231.20483,296.33295 232.0159,296.65375 232.83244,296.96036 233.65422,297.2527 234.48096,297.5306 235.31242,297.7941 236.14835,298.043 236.9885,298.2773 237.8326,298.49695 238.6804,298.7018 239.53165,298.89185 240.3861,299.06702 241.24345,299.22726 242.10349,299.3725 242.9659,299.50275 243.83047,299.61792 244.69693,299.718 245.56497,299.80292 246.43437,299.8727 247.30489,299.9273 248.1762,299.96674 249.04808,299.99094 249.92023,299.99994 250.79242,299.99374 251.66438,299.9723 252.53581,299.93567 253.40648,299.88382 254.27611,299.8168 255.14441,299.73465 256.0112,299.63736 256.87613,299.52493 257.73895,299.39746 258.59946,299.25494 259.45734,299.09744 260.31232,298.92502 261.16418,298.73767 262.0126,298.53552 262.85742,298.3186 263.6983,298.08698 264.53506,297.8407 265.36734,297.5799 266.19495,297.3046 267.01767,297.0149 267.83517,296.71088 268.64725,296.3927 269.45367,296.06033 270.25415,295.714 271.04846,295.35373 271.8364,294.97968 272.6177,294.59195 273.39206,294.19064 274.15933,293.77585 274.91928,293.34778 275.67163,292.9065 276.41617,292.45218 277.15265,291.98492 277.8809,291.50488 278.60065,291.01224 279.31168,290.5071 280.0138,289.98965 280.70682,289.46002 281.39047,288.91837 282.0645,288.3649 282.72888,287.79974 283.38327,287.22308 284.0275,286.6351 284.66132,286.03598 285.28464,285.42587 285.89725,284.805 286.49893,284.17352 287.08948,283.53168 287.66873,282.87958 288.2365,282.21747 288.7927,281.5456 289.3371,280.8641 289.86948,280.17328 290.38974,279.47318 290.89774,278.7641 291.39325,278.04636 291.87616,277.32 292.3464,276.58542 292.8037,275.84268 293.24796,275.0921 293.6791,274.33386 294.0969,273.56824 294.50134,272.79544 294.8922,272.01572 295.2694,271.22922 295.6328,270.43637 295.98233,269.63724 296.3179,268.83212 296.63934,268.0213 296.94662,267.205 297.2396,266.3835 297.5182,265.55695 297.78238,264.72568 298.03192,263.88995 298.26697,263.05 298.4872,262.20605 298.69275,261.35843 298.88348,260.50726 299.05936,259.65292 299.2203,258.79572 299.3662,257.9358 299.49716,257.07343 299.61298,256.20892 299.71375,255.34256 299.79938,254.47453 299.86987,253.60515 299.92514,252.7347 299.9652,251.86337 299.9901,250.99158 299.99982,250.11942 299.9943,249.2472 299.97354,248.37527 299.93762,247.50377 299.88644,246.63306 299.8202,245.76328 299.73865,244.89493 299.64206,244.02795 299.53033,243.16302 299.40356,242.3001 299.26172,241.43942 299.10486,240.58145 298.9331,239.72623 298.7465,238.87424 298.54498,238.02559 298.32864,237.1807 298.09775,236.33955 297.85208,235.50269 297.59195,234.67014 297.31735,233.84222 297.0282,233.01927 296.72485,232.20149 296.4073,231.3892 296.07556,230.58246 295.72986,229.78156 295.37024,228.98697 294.99677,228.1988 294.60962,227.41711 294.2089,226.6425 293.7948,225.87488 293.36716,225.11449 292.92654,224.36179 292.47275,223.61696 292.00616,222.88 291.5267,222.15141 291.0345,221.43118 290.5298,220.71974 290.0131,220.01701 289.48398,219.3236 288.9428,218.63953 288.38983,217.96503 287.8251,217.30005 287.24915,216.64531 286.66162,216.00058 286.06284,215.36612 285.4532,214.74228 284.83282,214.12924 284.2018,213.52704 283.56033,212.93585 282.90872,212.35614 282.247,211.78745 281.57553,211.23082 280.8945,210.68582 280.20398,210.15285 279.50446,209.6317 278.79562,209.12299 278.0782,208.62692 277.3523,208.14334 276.618,207.67245 275.87567,207.21439 275.12515,206.7694 274.3674,206.33762 273.60193,205.91904 272.82965,205.51398 272.05005,205.1222 271.26382,204.74406 270.4711,204.37975 269.67227,204.02939 268.86728,203.69287 250,250                                                                                                                                                                 " fill="rgb(255, 0, 0)" fill-opacity="1" stroke="rgb(255, 0, 0)" stroke-width="1" />
</svg>
