<svg width="250" height="250" style="background-color: rgb(255, 255, 255)" xmlns="http://www.w3.org/2000/svg">
<rect id="firkant" x="10" y="10" width="230" height="230" fill="rgb(255, 255, 255)" fill-opacity="1" rx="10" stroke="rgb(255, 255, 255)" stroke-width="10" />
<circle id="" cx="0" cy="0" r="1" fill="rgb(255, 0, 0)" fill-opacity="1" stroke="rgb(0, 0, 0)" stroke-width="1" />
<circle id="" cx="50" cy="10" r="33" fill="rgb(255, 0, 0)" fill-opacity="1" stroke="rgb(0, 0, 0)" stroke-width="10" />
<circle id="" cx="100" cy="10" r="36" fill="rgb(255, 100, 100)" fill-opacity="1" stroke="rgb(255, 255, 255)" stroke-width="10" />
<circle id="" cx="500" cy="10" r="39" fill="rgb(0, 255, 0)" fill-opacity="1" stroke="rgb(0, 0, 0)" stroke-width="10" />
<circle id="" cx="50" cy="10" r="40" fill="rgb(255, 0, 0)" fill-opacity="1" stroke="rgb(0, 0, 0)" stroke-width="10" />
<circle id="" cx="60" cy="10" r="40" fill="rgb(255, 0, 0)" fill-opacity="1" stroke="rgb(0, 0, 0)" stroke-width="10" />
<circle id="" cx="70" cy="10" r="40" fill="rgb(255, 0, 0)" fill-opacity="1" stroke="rgb(0, 0, 0)" stroke-width="10" />
<circle id="" cx="80" cy="10" r="40" fill="rgb(255, 0, 0)" fill-opacity="1" stroke="rgb(0, 0, 0)" stroke-width="10" />
<circle id="" cx="90" cy="10" r="40" fill="rgb(255, 0, 0)" fill-opacity="1" stroke="rgb(0, 0, 0)" stroke-width="10" />
<circle id="" cx="100" cy="10" r="40" fill="rgb(255, 0, 0)" fill-opacity="1" stroke="rgb(0, 0, 0)" stroke-width="10" />
<circle id="" cx="110" cy="10" r="40" fill="rgb(255, 0, 0)" fill-opacity="1" stroke="rgb(0, 0, 0)" stroke-width="10" />
<circle id="" cx="120" cy="10" r="40" fill="rgb(255, 0, 0)" fill-opacity="1" stroke="rgb(0, 0, 0)" stroke-width="10" />
<circle id="" cx="130" cy="10" r="40" fill="rgb(255, 0, 0)" fill-opacity="1" stroke="rgb(0, 0, 0)" stroke-width="10" />
<circle id="" cx="140" cy="10" r="40" fill="rgb(255, 0, 0)" fill-opacity="1" stroke="rgb(0, 0, 0)" stroke-width="10" />
<rect id="firkant2" x="10" y="10" width="180" height="180" fill="rgb(0, 255, 0)" fill-opacity="1" rx="10" stroke="rgb(255, 100, 100)" stroke-width="10" />
<text id="txt2" x="0" y="0" fill="rgb(255, 100, 100)" font-family="Arial" font-weight="400" font-size="14">Its even worse for mouses!</text>
<g id="mouse" transform="translate(125, 80)">
<g id="mousEars" transform="translate(0, 0)">
<circle id="leftEar" cx="-30" cy="0" r="30" fill="rgb(255, 255, 255)" fill-opacity="1" stroke="rgb(255, 100, 100)" stroke-width="10" />
<circle id="rightEar" cx="30" cy="0" r="30" fill="rgb(255, 255, 255)" fill-opacity="1" stroke="rgb(255, 100, 100)" stroke-width="10" />
</g>
<g id="mouseFace" transform="translate(0, 0)">
<circle id="face" cx="0" cy="30" r="50" fill="rgb(255, 255, 255)" fill-opacity="1" stroke="rgb(255, 100, 100)" stroke-width="10" />
<circle id="eye" cx="-20" cy="20" r="10" fill="rgb(255, 255, 255)" fill-opacity="1" stroke="rgb(0, 0, 0)" stroke-width="3" />
<circle id="eye2" cx="20" cy="20" r="10" fill="rgb(255, 255, 255)" fill-opacity="1" stroke="rgb(0, 0, 0)" stroke-width="3" />
<ellipse id="eyeball" cx="-20" cy="21" rx="5" ry="2" fill="rgb(0, 0, 0)" stroke="rgb(0, 0, 0)" stroke-width="2" />
<ellipse id="eyeball2" cx="20" cy="21" rx="5" ry="9" fill="rgb(0, 0, 0)" stroke="rgb(0, 0, 0)" stroke-width="2" />
<line id="mouth" x1="-20" y1="50" x2="20" y2="40" stroke="rgb(0, 0, 0)" stroke-width="3" />
</g>
</g>
<rect id="rectangle1" x="20" y="180" width="210" height="30" fill="rgb(255, 255, 255)" fill-opacity="1" rx="10" stroke="rgb(0, 0, 0)" stroke-width="2" />
<text id="txt" x="29" y="200" fill="rgb(0, 0, 0)" font-family="Arial" font-weight="400" font-size="16">It's even worse for mouses!</text>
<line id="l1" x1="-1" y1="-1" x2="251" y2="251" stroke="rgb(0, 0, 0)" stroke-width="2" />
<line id="l2" x1="-1" y1="251" x2="251" y2="-1" stroke="rgb(0, 0, 0)" stroke-width="2" />
<circle id="" cx="50" cy="10" r="40" fill="rgb(255, 0, 0)" fill-opacity="1" stroke="rgb(0, 0, 0)" stroke-width="10" />
<circle id="" cx="220" cy="120" r="40" fill="rgb(255, 0, 0)" fill-opacity="1" stroke="rgb(0, 0, 0)" stroke-width="10" />
<polygon id="poly" points="0,0 150,100 150,100 150,100 150,100 150,100 150,100 150,100 150,100 150,100 150,100 150,100 150,100 150,100 150,100 150,100 150,100 150,100 150,100 150,100 150,100 150,100 150,100 150,100 150,100 150,100 150,100 150,100 150,100 150,100 150,100 150,100 150,100 150,100 150,100 150,100 150,100 150,100 150,100 150,100 150,100 150,100 150,100 150,100 150,100 150,100 150,100 150,100 150,100 150,100 150,100 150,100 150,100 150,100 150,100 150,100 150,100 150,100 150,100 150,100 150,100 150,100 150,100 150,100 150,100 150,100 150,100 150,100 150,100 150,100 150,100 150,100 150,100 150,100 150,100 150,100 150,100 150,100 150,100 150,100 150,100 150,100 150,100 150,100 150,100 150,100 150,100 150,100 150,100 150,100 150,100 150,100 150,100 150,100 150,100 150,100 150,100 150,100 150,100 150,100 150,100 150,100 150,100 150,100 150,100 150,100 150,100 150,100 150,100 150,100 150,100 150,100 150,100 150,100 150,100 150,100 150,100 150,100 150,100 150,100 150,100 150,100 150,100 150,100 150,100 150,100 150,100 150,100 150,100 150,100 150,100 150,100 150,100 150,100 150,100 150,100 150,100 150,100 150,100 150,100 150,100 150,100 150,100 150,100 150,100 150,100 150,100 150,100 150,100 150,100 150,100 150,100 150,100 150,100 150,100 150,100 150,100 150,100 150,100 150,100 150,100 150,100 150,100 150,100 150,100 150,100 150,100 150,100 150,100 150,100 150,100 150,100 150,100 150,100 150,100 150,100 150,100 150,100 150,100 150,100 150,100 150,100 150,100 150,100 150,100 150,100 150,100 150,100 150,100 150,100 150,100 150,100 150,100 150,100 150,100 150,100 150,100 150,100 150,100 150,100 150,100 150,100 150,100 150,100 150,100 150,100 150,100 150,100 150,100 150,100 150,100 150,100 150,100 150,100 150,100 150,100 150,100 150,100 150,100 150,100 150,100 150,100 150,100 150,100 150,100 150,100 150,100 150,100 150,100 150,100 150,100 150,100 150,100 150,100 150,100 150,100 150,100 150,100 150,100 150,100 150,100 150,100 150,100 150,100 150,100 150,100 150,100 150,100 150,100 150,100 150,100 150,100 150,100 150,100 150,100 150,100 150,100 150,100 150,100 150,100 150,100 150,100 150,100 150,100 150,100 150,100 150,100 150,100 150,100 150,100 150,100 150,100 150,100 150,100 150,100 150,100 150,100 150,100 150,100 150,100 150,100 150,100 150,100 150,100 150,100 150,100 150,100 150,100 150,100 150,100 150,100 150,100 150,100 150,100 150,100 150,100 150,100 150,100 150,100 150,100 150,100 150,100 150,100 150,100 150,100 150,100 150,100 150,100 150,100 150,100 150,100 150,100 150,100 150,100 150,100 150,100 150,100 150,100 150,100 150,100 150,100 150,100 150,100 150,100 150,100 150,100 150,100 150,100 150,100 150,100 150,100 150,100 150,100 150,100 150,100 150,100 150,100 150,100 150,100 150,100 150,100 150,100 150,100 150,100 150,100 150,100 150,100 150,100 150,100 150,100 150,100 150,100 150,100 150,100 150,100 150,100 150,100 150,100 150,100 150,100 150,100 " fill="rgb(0, 255, 255)" fill-opacity="1" stroke="rgb(255, 255, 255)" stroke-width="10" />
</svg>
