<svg width="250" height="250" style="background-color: rgba(255, 255, 255, 1)" xmlns="http://www.w3.org/2000/svg">
<rect id="firkant" x="10" y="10" width="230" height="230" fill="rgba(255, 255, 255, 1)" fill-opacity="1" stroke="rgba(255, 255, 255, 1)" stroke-width="10" />
<circle id="circles" cx="0" cy="0" r="1" fill="rgba(255, 0, 0, 1)" fill-opacity="1" stroke="rgba(0, 0, 0, 1)" stroke-width="1" />
<circle id="circles" cx="50" cy="10" r="33" fill="rgba(255, 0, 0, 1)" fill-opacity="1" stroke="rgba(0, 0, 0, 1)" stroke-width="10" />
<circle id="circles" cx="100" cy="10" r="36" fill="rgba(255, 100, 100, 1)" fill-opacity="1" stroke="rgba(255, 255, 255, 1)" stroke-width="10" />
<circle id="circles" cx="500" cy="10" r="39" fill="rgba(0, 255, 0, 1)" fill-opacity="1" stroke="rgba(0, 0, 0, 1)" stroke-width="10" />
<circle id="circles" cx="50" cy="10" r="40" fill="rgba(255, 0, 0, 1)" fill-opacity="1" stroke="rgba(0, 0, 0, 1)" stroke-width="10" />
<circle id="circles" cx="60" cy="10" r="40" fill="rgba(255, 0, 0, 1)" fill-opacity="1" stroke="rgba(0, 0, 0, 1)" stroke-width="10" />
<circle id="circles" cx="70" cy="10" r="40" fill="rgba(255, 0, 0, 1)" fill-opacity="1" stroke="rgba(0, 0, 0, 1)" stroke-width="10" />
<circle id="circles" cx="80" cy="10" r="40" fill="rgba(255, 0, 0, 1)" fill-opacity="1" stroke="rgba(0, 0, 0, 1)" stroke-width="10" />
<circle id="circles" cx="90" cy="10" r="40" fill="rgba(255, 0, 0, 1)" fill-opacity="1" stroke="rgba(0, 0, 0, 1)" stroke-width="10" />
<circle id="circles" cx="100" cy="10" r="40" fill="rgba(255, 0, 0, 1)" fill-opacity="1" stroke="rgba(0, 0, 0, 1)" stroke-width="10" />
<circle id="circles" cx="110" cy="10" r="40" fill="rgba(255, 0, 0, 1)" fill-opacity="1" stroke="rgba(0, 0, 0, 1)" stroke-width="10" />
<circle id="circles" cx="120" cy="10" r="40" fill="rgba(255, 0, 0, 1)" fill-opacity="1" stroke="rgba(0, 0, 0, 1)" stroke-width="10" />
<circle id="circles" cx="130" cy="10" r="40" fill="rgba(255, 0, 0, 1)" fill-opacity="1" stroke="rgba(0, 0, 0, 1)" stroke-width="10" />
<circle id="circles" cx="140" cy="10" r="40" fill="rgba(255, 0, 0, 1)" fill-opacity="1" stroke="rgba(0, 0, 0, 1)" stroke-width="10" />
<g id="mouse" transform="translate(125, 80)">
<g id="mousEars" transform="translate(0, 0)">
<circle id="leftEar" cx="-30" cy="0" r="30" fill="rgba(255, 255, 255, 1)" fill-opacity="1" stroke="rgba(255, 100, 100, 1)" stroke-width="10" />
<circle id="rightEar" cx="30" cy="0" r="30" fill="rgba(255, 255, 255, 1)" fill-opacity="1" stroke="rgba(255, 100, 100, 1)" stroke-width="10" />
</g>
<g id="mouseFace" transform="translate(0, 0)">
<circle id="face" cx="0" cy="30" r="50" fill="rgba(255, 255, 255, 1)" fill-opacity="1" stroke="rgba(255, 100, 100, 1)" stroke-width="10" />
<circle id="eye" cx="-20" cy="20" r="10" fill="rgba(255, 255, 255, 1)" fill-opacity="1" stroke="rgba(0, 0, 0, 1)" stroke-width="3" />
<circle id="eye2" cx="20" cy="20" r="10" fill="rgba(255, 255, 255, 1)" fill-opacity="1" stroke="rgba(0, 0, 0, 1)" stroke-width="3" />
<ellipse id="eyeball" cx="-20" cy="21" rx="5" ry="2" fill="rgba(0, 0, 0, 1)" stroke="rgba(0, 0, 0, 1)" stroke-width="2" />
<ellipse id="eyeball2" cx="20" cy="21" rx="5" ry="9" fill="rgba(0, 0, 0, 1)" stroke="rgba(0, 0, 0, 1)" stroke-width="2" />
<line id="mouth" x1="-20" y1="50" x2="20" y2="40" stroke="rgba(0, 0, 0, 1)" stroke-width="3" />
</g>
</g>
<rect id="rectangle1" x="20" y="180" width="210" height="30" fill="rgba(255, 255, 255, 1)" fill-opacity="1" stroke="rgba(0, 0, 0, 1)" stroke-width="2" />
<text id="txt" x="29" y="200" fill="rgba(0, 0, 0, 1)" font-family="Arial" font-size="16">It's even worse for mouses!</text>
<line id="l1" x1="0" y1="0" x2="251" y2="251" stroke="rgba(0, 0, 0, 1)" stroke-width="2" />
<line id="l2" x1="0" y1="250" x2="251" y2="-1" stroke="rgba(0, 0, 0, 1)" stroke-width="2" />
<circle id="circles2" cx="50" cy="10" r="40" fill="rgba(255, 0, 0, 1)" fill-opacity="1" stroke="rgba(0, 0, 0, 1)" stroke-width="10" />
<circle id="circles2" cx="220" cy="120" r="40" fill="rgba(255, 0, 0, 1)" fill-opacity="1" stroke="rgba(0, 0, 0, 1)" stroke-width="10" />
<polygon id="poly" points="0,0 0,0 0,10 0,20 0,30 0,40 0,50 0,60 0,70 0,80 0,90 10,0 10,10 10,20 10,30 10,40 10,50 10,60 10,70 10,80 10,90 20,0 20,10 20,20 20,30 20,40 20,50 20,60 20,70 20,80 20,90 30,0 30,10 30,20 30,30 30,40 30,50 30,60 30,70 30,80 30,90 40,0 40,10 40,20 40,30 40,40 40,50 40,60 40,70 40,80 40,90 50,0 50,10 50,20 50,30 50,40 50,50 50,60 50,70 50,80 50,90 60,0 60,10 60,20 60,30 60,40 60,50 60,60 60,70 60,80 60,90 70,0 70,10 70,20 70,30 70,40 70,50 70,60 70,70 70,80 70,90 80,0 80,10 80,20 80,30 80,40 80,50 80,60 80,70 80,80 80,90 90,0 90,10 90,20 90,30 90,40 90,50 90,60 90,70 90,80 90,90 " fill="rgba(0, 255, 255, 1)" fill-opacity="1" stroke="rgba(255, 255, 255, 1)" stroke-width="10" />
</svg>
