<svg width="250" height="250" style="background-color: rgba(255, 255, 255, 1)" xmlns="http://www.w3.org/2000/svg">
<rect id="firkant" x="10" y="10" width="230" height="230" fill="rgba(255, 255, 255, 1)" fill-opacity="1" stroke="rgba(255, 255, 255, 1)" stroke-width="10" />
<circle id="circles" cx="50" cy="10" r="33" fill="rgba(255, 0, 0, 1)" fill-opacity="1" stroke="rgba(0, 0, 0, 1)" stroke-width="10" />
<circle id="circles" cx="100" cy="10" r="36" fill="rgba(255, 100, 100, 1)" fill-opacity="1" stroke="rgba(255, 255, 255, 1)" stroke-width="10" />
<circle id="circles" cx="500" cy="10" r="39" fill="rgba(0, 255, 0, 1)" fill-opacity="1" stroke="rgba(0, 0, 0, 1)" stroke-width="10" />
<circle id="circles" cx="50" cy="10" r="40" fill="rgba(255, 0, 0, 1)" fill-opacity="1" stroke="rgba(0, 0, 0, 1)" stroke-width="10" />
<circle id="circles" cx="60" cy="10" r="40" fill="rgba(255, 0, 0, 1)" fill-opacity="1" stroke="rgba(0, 0, 0, 1)" stroke-width="10" />
<circle id="circles" cx="70" cy="10" r="40" fill="rgba(255, 0, 0, 1)" fill-opacity="1" stroke="rgba(0, 0, 0, 1)" stroke-width="10" />
<circle id="circles" cx="80" cy="10" r="40" fill="rgba(255, 0, 0, 1)" fill-opacity="1" stroke="rgba(0, 0, 0, 1)" stroke-width="10" />
<circle id="circles" cx="90" cy="10" r="40" fill="rgba(255, 0, 0, 1)" fill-opacity="1" stroke="rgba(0, 0, 0, 1)" stroke-width="10" />
<circle id="circles" cx="100" cy="10" r="40" fill="rgba(255, 0, 0, 1)" fill-opacity="1" stroke="rgba(0, 0, 0, 1)" stroke-width="10" />
<circle id="circles" cx="110" cy="10" r="40" fill="rgba(255, 0, 0, 1)" fill-opacity="1" stroke="rgba(0, 0, 0, 1)" stroke-width="10" />
<circle id="circles" cx="120" cy="10" r="40" fill="rgba(255, 0, 0, 1)" fill-opacity="1" stroke="rgba(0, 0, 0, 1)" stroke-width="10" />
<circle id="circles" cx="130" cy="10" r="40" fill="rgba(255, 0, 0, 1)" fill-opacity="1" stroke="rgba(0, 0, 0, 1)" stroke-width="10" />
<circle id="circles" cx="140" cy="10" r="40" fill="rgba(255, 0, 0, 1)" fill-opacity="1" stroke="rgba(0, 0, 0, 1)" stroke-width="10" />
<g id="mouse" transform="translate(125, 80)">
<g id="mousEars" transform="translate(0, 0)">
<circle id="leftEar" cx="-30" cy="0" r="30" fill="rgba(255, 255, 255, 1)" fill-opacity="1" stroke="rgba(255, 100, 100, 1)" stroke-width="10" />
<circle id="rightEar" cx="30" cy="0" r="30" fill="rgba(255, 255, 255, 1)" fill-opacity="1" stroke="rgba(255, 100, 100, 1)" stroke-width="10" />
</g>
<g id="mouseFace" transform="translate(0, 0)">
<circle id="face" cx="0" cy="30" r="50" fill="rgba(255, 255, 255, 1)" fill-opacity="1" stroke="rgba(255, 100, 100, 1)" stroke-width="10" />
<circle id="eye" cx="-20" cy="20" r="10" fill="rgba(255, 255, 255, 1)" fill-opacity="1" stroke="rgba(0, 0, 0, 1)" stroke-width="3" />
<circle id="eye2" cx="20" cy="20" r="10" fill="rgba(255, 255, 255, 1)" fill-opacity="1" stroke="rgba(0, 0, 0, 1)" stroke-width="3" />
<ellipse id="eyeball" cx="-20" cy="21" rx="5" ry="2" fill="rgba(0, 0, 0, 1)" stroke="rgba(0, 0, 0, 1)" stroke-width="2" />
<ellipse id="eyeball2" cx="20" cy="21" rx="5" ry="9" fill="rgba(0, 0, 0, 1)" stroke="rgba(0, 0, 0, 1)" stroke-width="2" />
<line id="mouth" x1="-20" y1="50" x2="20" y2="40" stroke="rgba(0, 0, 0, 1)" stroke-width="3" />
</g>
</g>
<rect id="rectangle1" x="20" y="180" width="210" height="30" fill="rgba(255, 255, 255, 1)" fill-opacity="1" stroke="rgba(0, 0, 0, 1)" stroke-width="2" />
<text id="txt" x="29" y="200" fill="rgba(0, 0, 0, 1)" font-family="Arial" font-size="16">It's even worse for mouses!</text>
<line id="l1" x1="0" y1="0" x2="1" y2="1" stroke="rgba(0, 0, 0, 1)" stroke-width="2" />
<line id="l2" x1="0" y1="250" x2="-249" y2="499" stroke="rgba(0, 0, 0, 1)" stroke-width="2" />
<circle id="circles2" cx="50" cy="10" r="40" fill="rgba(255, 0, 0, 1)" fill-opacity="1" stroke="rgba(0, 0, 0, 1)" stroke-width="10" />
<circle id="circles2" cx="220" cy="120" r="40" fill="rgba(255, 0, 0, 1)" fill-opacity="1" stroke="rgba(0, 0, 0, 1)" stroke-width="10" />
<circle id="gottenCircle" cx="0" cy="0" r="1" fill="rgba(255, 0, 0, 1)" fill-opacity="1" stroke="rgba(0, 0, 0, 1)" stroke-width="1" />
<circle id="tis" cx="10" cy="10" r="1" fill="rgba(255, 0, 0, 1)" fill-opacity="1" stroke="rgba(0, 0, 0, 1)" stroke-width="100" />
<polygon id="poly" points="150,100 150,100 149.99239,100.87218 149.96957,101.74409 149.93155,102.61547 149.87833,103.48606 149.80992,104.35558 149.72638,105.223785 149.62769,106.09039 149.5139,106.955154 149.38504,107.81779 149.24115,108.678055 149.08229,109.535675 148.90848,110.390396 148.71979,111.24195 148.51628,112.09009 148.298,112.93454 148.06503,113.77506 147.81744,114.61139 147.5553,115.443275 147.27866,116.270454 146.98766,117.09269 146.68234,117.90972 146.36284,118.7213 146.02922,119.52718 145.6816,120.32713 145.32007,121.12088 144.94475,121.90821 144.55576,122.68887 144.1532,123.46263 143.73721,124.229256 143.3079,124.988495 142.86543,125.74014 142.40991,126.48395 141.94148,127.219696 141.4603,127.94717 140.96649,128.66614 140.46022,129.37637 139.94164,130.07767 139.41089,130.7698 138.86816,131.45259 138.3136,132.12581 137.74739,132.78925 137.16968,133.44272 136.58067,134.086 135.98051,134.7189 135.36942,135.34125 134.74756,135.95284 134.11514,136.5535 133.47232,137.14302 132.81932,137.72124 132.15634,138.288 131.48357,138.84308 130.80121,139.38635 130.1095,139.91765 129.4086,140.4368 128.69878,140.94363 127.9802,141.438 127.25312,141.91977 126.51774,142.3888 125.77429,142.84491 125.023,143.28798 124.2641,143.7179 123.4978,144.13449 122.724365,144.53766 121.944016,144.92728 121.15698,145.30322 120.36351,145.66539 119.56384,146.01366 118.758224,146.34792 117.94689,146.66808 117.130104,146.97403 116.3081,147.26569 115.48113,147.54297 114.64945,147.80579 113.813324,148.05405 112.972984,148.28769 112.1287,148.50665 111.28072,148.71083 110.42931,148.9002 109.57473,149.07468 108.71724,149.23424 107.857086,149.3788 106.994545,149.50835 106.129875,149.62282 105.26334,149.7222 104.39521,149.80646 103.525734,149.87553 102.65519,149.92944 101.78384,149.96817 100.91194,149.99168 100.039764,149.99998 99.16758,149.99307 98.29565,149.97095 97.42423,149.93361 96.553604,149.88107 95.68402,149.81339 94.81575,149.73051 93.949066,149.6325 93.08421,149.51941 92.221466,149.39124 91.36109,149.24803 90.50334,149.08984 89.64848,148.91673 88.79677,148.72871 87.94847,148.52588 87.103836,148.30827 86.26314,148.07596 85.426605,147.82904 84.594505,147.56754 83.767105,147.29156 82.94464,147.00122 82.127365,146.69656 81.31553,146.37769 80.50937,146.04471 79.70915,145.69772 78.915115,145.33682 78.12749,144.96213 77.34651,144.57376 76.57244,144.17181 75.8055,143.75644 75.04591,143.32774 74.29392,142.88586 73.54975,142.43094 72.81364,141.9631 72.08579,141.48248 71.36644,140.98924 70.65579,140.48355 69.954094,139.96553 69.26152,139.43533 68.57831,138.89314 67.904655,138.33913 67.24077,137.77344 66.58685,137.19626 65.94311,136.60776 65.30972,136.00812 64.68689,135.39752 64.074814,134.77615 63.473656,134.1442 62.883625,133.50186 62.304874,132.84932 61.737606,132.18678 61.18198,131.51447 60.638165,130.83253 60.106323,130.14124 59.586628,129.44077 59.079227,128.73135 58.58428,128.01317 58.10194,127.28647 57.63233,126.551476 57.175636,125.808395 56.731968,125.05746 56.301453,124.298904 55.884247,123.53295 55.480457,122.75984 55.090225,121.9798 54.713657,121.19307 54.35086,120.39989 54.001965,119.60051 53.66706,118.795166 53.346252,117.9841 53.039646,117.16756 52.74733,116.34578 52.4694,115.51904 52.205914,114.687584 51.956993,113.851654 51.722683,113.011505 51.50305,112.167404 51.2982,111.319595 51.108143,110.46835 50.93298,109.61391 50.772747,108.75655 50.627487,107.89652 50.497257,107.0341 50.38209,106.169525 50.28202,105.30307 50.197083,104.43502 50.12729,103.56563 50.07268,102.695114 50.03326,101.823814 50.009068,100.95192 50.000053,100.07977 50.006268,99.20757 50.027702,98.33562 50.064342,97.46419 50.116177,96.59352 50.183193,95.72389 50.26535,94.85559 50.362648,93.98881 50.475056,93.12388 50.602543,92.26103 50.74505,91.40054 50.902546,90.54268 51.07499,89.687675 51.26232,88.83582 51.46448,87.98739 51.681404,87.14258 51.91302,86.3017 52.159286,85.46495 52.42012,84.63266 52.695415,83.80505 52.985107,82.98234 53.289116,82.164825 53.60731,81.35275 53.939667,80.54632 54.286,79.74585 54.646267,78.95154 55.02031,78.1636 55.408062,77.3823 55.80937,76.60794 56.224148,75.84066 56.65221,75.08071 57.093502,74.32837 57.547825,73.58383 58.015087,72.84735 58.495102,72.119125 58.987762,71.39935 59.492893,70.688324 60.010353,69.9862 60.53999,69.2932 61.081623,68.60954 61.635105,67.93547 62.200268,67.27112 62.776928,66.61673 63.36489,65.97251 63.96403,65.338684 64.57412,64.71536 65.195015,64.10274 65.82648,63.50108 66.46832,62.910522 67.12044,62.331272 67.78252,61.763485 68.45441,61.207317 69.135895,60.662903 69.82674,60.13053 70.526825,59.61027 71.235886,59.10227 71.95364,58.606766 72.679985,58.123825 73.41457,57.653587 74.15732,57.196297 74.9079,56.75205 75.66612,56.320885 76.43176,55.903114 77.20456,55.498665 77.98428,55.10779 78.77078,54.73059 79.563644,54.36718 80.36276,54.017673 81.16788,53.68209 81.97869,53.360645 82.795,53.053368 83.6165,52.760403 84.44304,52.481796 85.274315,52.217613 86.11006,51.96809 86.95003,51.733032 87.793945,51.512775 88.641556,51.307236 89.49274,51.11651 90.34707,50.940636 91.204285,50.77969 92.06422,50.633797 92.92658,50.502834 93.79106,50.38704 94.65744,50.28624 95.52547,50.200634 96.394844,50.130142 97.26531,50.074852 98.13662,50.034794 99.00843,50.009888 99.88058,50.00017 100.752815,50.0057 101.62472,50.026463 102.49622,50.06238 103.36694,50.113567 104.23673,50.179802 105.10507,50.261364 105.97204,50.35794 106.836975,50.469658 107.69991,50.59642 108.56058,50.738266 109.41856,50.89515 110.27378,51.066902 111.12576,51.253506 111.97441,51.455017 112.819305,51.67135 113.660446,51.902245 114.497314,52.147926 115.32987,52.408047 116.157776,52.68264 116.98073,52.971794 117.79851,53.27514 118.610794,53.592724 119.417534,53.92443 120.21844,54.270153 121.01303,54.629757 121.8012,55.003242 122.582886,55.390377 123.357506,55.791115 124.125114,56.20519 124.88551,56.632835 125.638214,57.073452 126.38304,57.52725 127.119995,57.993847 127.84859,58.4733 128.56882,58.965504 129.28026,59.47022 129.98299,59.986908 130.6764,60.516033 131.36047,61.057182 132.03497,61.610176 132.69995,62.174908 133.35469,62.75084 133.99942,63.338394 134.63388,63.937153 135.25772,64.54682 135.87076,65.167175 136.47296,65.798195 137.06415,66.43967 137.64386,67.09128 138.21255,67.753006 138.76918,68.42446 139.31418,69.10549 139.84715,69.79603 140.3683,70.49556 140.87701,71.20436 141.37308,71.921814 141.85666,72.64772 142.32755,73.38198 142.78561,74.12432 143.2306,74.87483 143.66238,75.632614 144.08096,76.39806 144.48602,77.170334 144.8778,77.94996 145.25594,78.73617 145.62025,79.52891 145.97061,80.327736 146.30713,81.132706 146.62927,81.94333 146.93748,82.759384 147.23126,83.58087 147.51082,84.40714 147.77617,85.23838 148.02652,86.07396 148.26256,86.91412 148.48395,87.757805 148.69048,88.60533 148.88235,89.456474 149.05923,90.31065 149.22151,91.16823 149.36876,92.02779 149.50049,92.890015 149.61821,93.75487 149.71985,94.6211 149.80687,95.48961 149.87881,96.359085 149.93536,97.22951 149.97704,98.10094 150.00328,98.97313 " fill="rgba(0, 255, 255, 1)" fill-opacity="1" stroke="rgba(255, 255, 255, 1)" stroke-width="10" />
<circle id="cricles" cx="50" cy="50" r="20" fill="rgba(255, 0, 0, 1)" fill-opacity="1" stroke="rgba(255, 100, 100, 1)" stroke-width="10" />
<circle id="cricles" cx="60" cy="50" r="20" fill="rgba(255, 0, 0, 1)" fill-opacity="1" stroke="rgba(255, 100, 100, 1)" stroke-width="10" />
<circle id="cricles" cx="70" cy="50" r="20" fill="rgba(255, 0, 0, 1)" fill-opacity="1" stroke="rgba(255, 100, 100, 1)" stroke-width="10" />
<circle id="cricles" cx="80" cy="50" r="20" fill="rgba(255, 0, 0, 1)" fill-opacity="1" stroke="rgba(255, 100, 100, 1)" stroke-width="10" />
<circle id="cricles" cx="90" cy="50" r="20" fill="rgba(255, 0, 0, 1)" fill-opacity="1" stroke="rgba(255, 100, 100, 1)" stroke-width="10" />
<circle id="cricles" cx="100" cy="50" r="20" fill="rgba(255, 0, 0, 1)" fill-opacity="1" stroke="rgba(255, 100, 100, 1)" stroke-width="10" />
<circle id="cricles" cx="110" cy="50" r="20" fill="rgba(255, 0, 0, 1)" fill-opacity="1" stroke="rgba(255, 100, 100, 1)" stroke-width="10" />
<circle id="cricles" cx="120" cy="50" r="20" fill="rgba(255, 0, 0, 1)" fill-opacity="1" stroke="rgba(255, 100, 100, 1)" stroke-width="10" />
<circle id="cricles" cx="130" cy="50" r="20" fill="rgba(255, 0, 0, 1)" fill-opacity="1" stroke="rgba(255, 100, 100, 1)" stroke-width="10" />
<circle id="cricles" cx="140" cy="50" r="20" fill="rgba(255, 0, 0, 1)" fill-opacity="1" stroke="rgba(255, 100, 100, 1)" stroke-width="10" />
<circle id="numse" cx="69" cy="69" r="30" fill="rgba(69, 95, 214, 1)" fill-opacity="1" stroke="rgba(255, 0, 0, 1)" stroke-width="2" />
<circle id="numse1" cx="99" cy="69" r="30" fill="rgba(69, 95, 214, 1)" fill-opacity="1" stroke="rgba(255, 0, 0, 1)" stroke-width="2" />
</svg>
