<svg width="2510" height="400" style="background-color: rgb(255, 255, 255, 1)" xmlns="http://www.w3.org/2000/svg">
<rect id="l" x="50" y="150" width="230" height="100" fill="rgb(255, 255, 255, 1)" fill-opacity="1" rx="10" stroke="rgb(0, 0, 0, 1)" stroke-width="5" />
<rect id="l" x="380" y="150" width="190" height="100" fill="rgb(255, 0, 0, 1)" fill-opacity="1" rx="10" stroke="rgb(255, 255, 255, 1)" stroke-width="0" />
<rect id="l" x="670" y="150" width="190" height="100" fill="rgb(255, 0, 0, 1)" fill-opacity="1" rx="10" stroke="rgb(255, 255, 255, 1)" stroke-width="0" />
<rect id="l" x="960" y="150" width="380" height="100" fill="rgb(255, 0, 0, 1)" fill-opacity="1" rx="10" stroke="rgb(255, 255, 255, 1)" stroke-width="0" />
<rect id="l" x="2010" y="150" width="380" height="100" fill="rgb(255, 0, 0, 1)" fill-opacity="1" rx="10" stroke="rgb(255, 255, 255, 1)" stroke-width="0" />
<rect id="l" x="1540" y="150" width="380" height="100" fill="rgb(255, 0, 0, 1)" fill-opacity="1" rx="10" stroke="rgb(255, 255, 255, 1)" stroke-width="0" />
<text id="t" x="70" y="213" fill="rgb(0, 0, 0, 1)" font-family="" font-weight="600" font-size="40">Source Code</text>
<text id="t" x="420" y="213" fill="rgb(255, 255, 255, 1)" font-family="" font-weight="600" font-size="40">Lexer</text>
<text id="t" x="710" y="213" fill="rgb(255, 255, 255, 1)" font-family="" font-weight="600" font-size="40">Parser</text>
<text id="t" x="970" y="213" fill="rgb(255, 255, 255, 1)" font-family="" font-weight="600" font-size="40">Semantic Analysis</text>
<text id="t" x="2020" y="213" fill="rgb(255, 255, 255, 1)" font-family="" font-weight="600" font-size="40">Result</text>
<text id="t" x="1560" y="213" fill="rgb(0, 0, 0, 1)" font-family="" font-weight="600" font-size="40">Interpreter</text>
<line id="a" x1="290" y1="200" x2="370" y2="200" stroke="rgb(0, 0, 0, 1)" stroke-width="10" />
<polygon id="a" points="370,200 360,210 360,190" fill="rgb(0, 0, 0, 1)" fill-opacity="1" stroke="rgb(0, 0, 0, 1)" stroke-width="10" />
<line id="a" x1="580" y1="200" x2="660" y2="200" stroke="rgb(0, 0, 0, 1)" stroke-width="10" />
<polygon id="a" points="660,200 650,210 650,190" fill="rgb(0, 0, 0, 1)" fill-opacity="1" stroke="rgb(0, 0, 0, 1)" stroke-width="10" />
<line id="a" x1="870" y1="200" x2="950" y2="200" stroke="rgb(0, 0, 0, 1)" stroke-width="10" />
<polygon id="a" points="950,200 940,210 940,190" fill="rgb(0, 0, 0, 1)" fill-opacity="1" stroke="rgb(0, 0, 0, 1)" stroke-width="10" />
<line id="a" x1="1350" y1="200" x2="1430" y2="200" stroke="rgb(0, 0, 0, 1)" stroke-width="10" />
<polygon id="a" points="1430,200 1420,210 1420,190" fill="rgb(0, 0, 0, 1)" fill-opacity="1" stroke="rgb(0, 0, 0, 1)" stroke-width="10" />
<line id="a" x1="2400" y1="200" x2="2480" y2="200" stroke="rgb(0, 0, 0, 1)" stroke-width="10" />
<polygon id="a" points="2480,200 2470,210 2470,190" fill="rgb(0, 0, 0, 1)" fill-opacity="1" stroke="rgb(0, 0, 0, 1)" stroke-width="10" />
</svg>
